<svg width="18" height="18" viewBox="0 0 18 18" fill="none" xmlns="http://www.w3.org/2000/svg">
<path d="M1.26787 7.76364C1.60413 7.76364 1.92661 7.88049 2.16438 8.08848C2.40215 8.29648 2.53573 8.57858 2.53573 8.87273V16.6364C2.53573 16.9305 2.40215 17.2126 2.16438 17.4206C1.92661 17.6286 1.60413 17.7455 1.26787 17.7455C0.931607 17.7455 0.609121 17.6286 0.37135 17.4206C0.133579 17.2126 0 16.9305 0 16.6364V8.87273C0 8.57858 0.133579 8.29648 0.37135 8.08848C0.609121 7.88049 0.931607 7.76364 1.26787 7.76364ZM7.6072 1.10909V16.6364C7.6072 16.9305 7.74078 17.2126 7.97855 17.4206C8.21632 17.6286 8.53881 17.7455 8.87506 17.7455C9.21132 17.7455 9.53381 17.6286 9.77158 17.4206C10.0094 17.2126 10.1429 16.9305 10.1429 16.6364V1.10909C10.1429 0.814942 10.0094 0.53284 9.77158 0.324845C9.53381 0.116851 9.21132 0 8.87506 0C8.53881 0 8.21632 0.116851 7.97855 0.324845C7.74078 0.53284 7.6072 0.814942 7.6072 1.10909ZM15.2144 4.99091V16.6364C15.2144 16.9305 15.348 17.2126 15.5857 17.4206C15.8235 17.6286 16.146 17.7455 16.4823 17.7455C16.8185 17.7455 17.141 17.6286 17.3788 17.4206C17.6166 17.2126 17.7501 16.9305 17.7501 16.6364V4.99091C17.7501 4.69676 17.6166 4.41466 17.3788 4.20666C17.141 3.99867 16.8185 3.88182 16.4823 3.88182C16.146 3.88182 15.8235 3.99867 15.5857 4.20666C15.348 4.41466 15.2144 4.69676 15.2144 4.99091Z" fill="white"/>
</svg>
