<svg width="14" height="12" viewBox="0 0 14 12" fill="none" xmlns="http://www.w3.org/2000/svg">
<path d="M12.19 0.7575C12.04 0.315 11.62 0 11.125 0H2.875C2.38 0 1.9675 0.315 1.81 0.7575L0.25 5.25V11.25C0.25 11.6625 0.5875 12 1 12H1.75C2.1625 12 2.5 11.6625 2.5 11.25V10.5H11.5V11.25C11.5 11.6625 11.8375 12 12.25 12H13C13.4125 12 13.75 11.6625 13.75 11.25V5.25L12.19 0.7575ZM3.625 8.25C3.0025 8.25 2.5 7.7475 2.5 7.125C2.5 6.5025 3.0025 6 3.625 6C4.2475 6 4.75 6.5025 4.75 7.125C4.75 7.7475 4.2475 8.25 3.625 8.25ZM10.375 8.25C9.7525 8.25 9.25 7.7475 9.25 7.125C9.25 6.5025 9.7525 6 10.375 6C10.9975 6 11.5 6.5025 11.5 7.125C11.5 7.7475 10.9975 8.25 10.375 8.25ZM2.3575 3.75L3.1375 1.5H10.855L11.635 3.75H2.3575Z" fill="url(#paint0_linear_2673_608)"/>
<defs>
<linearGradient id="paint0_linear_2673_608" x1="10.0134" y1="-0.470149" x2="11.1128" y2="14.0886" gradientUnits="userSpaceOnUse">
<stop stop-color="#554FEB"/>
<stop offset="1" stop-color="#52C3AA"/>
</linearGradient>
</defs>
</svg>
