<svg width="24" height="24" viewBox="0 0 24 24" fill="none" xmlns="http://www.w3.org/2000/svg">
<path d="M19.7915 8.00539C20.3415 8.00539 20.7915 8.45539 20.7915 9.00539C20.7915 9.55539 20.3415 10.0054 19.7915 10.0054H16.7915C14.2115 10.7354 13.3215 13.0754 13.7915 15.1754L14.6715 14.2954C15.0615 13.9054 15.6915 13.9054 16.0815 14.2954C16.4715 14.6854 16.4715 15.3154 16.0815 15.7054L13.4915 18.2954C13.1015 18.6854 12.4715 18.6854 12.0815 18.2954L9.49148 15.7054C9.10148 15.3154 9.10148 14.6854 9.49148 14.2954C9.88148 13.9054 10.5115 13.9054 10.9015 14.2954L11.7915 15.1754C11.4615 13.6654 11.8715 11.4454 13.1515 10.0054H6.62148L7.50148 10.8854C7.89148 11.2754 7.89148 11.9054 7.50148 12.2954C7.11148 12.6854 6.48148 12.6854 6.09148 12.2954L3.50148 9.70539C3.11148 9.31539 3.11148 8.68539 3.50148 8.29539L6.09148 5.70539C6.48148 5.31539 7.11148 5.31539 7.50148 5.70539C7.89148 6.09539 7.89148 6.72539 7.50148 7.11539L6.62148 8.00539H19.7915Z" fill="black"/>
</svg>
