<svg width="20" height="20" viewBox="0 0 20 20" fill="none" xmlns="http://www.w3.org/2000/svg">
<path d="M16.1374 14.2838C16.4883 14.6161 17.0552 14.6161 17.4062 14.2838L19.7368 12.0775C20.0877 11.7453 20.0877 11.2086 19.7368 10.8764L17.4062 8.67007C17.0552 8.33784 16.4883 8.33784 16.1374 8.67007C15.7864 9.00229 15.7864 9.53897 16.1374 9.8712L16.9293 10.6294H9.57748C8.58764 10.6294 7.77778 11.396 7.77778 12.3331V19.148C7.77778 19.6165 8.18271 19.9998 8.67763 19.9998C9.17255 19.9998 9.57748 19.6165 9.57748 19.148V12.3331H16.9293L16.1374 13.0827C15.7864 13.4149 15.7864 13.9516 16.1374 14.2838Z" fill="black"/>
<path d="M3.86261 5.71615C3.51167 5.38393 2.94476 5.38393 2.59382 5.71615L0.263206 7.92248C-0.0877355 8.25471 -0.0877355 8.79138 0.263206 9.12361L2.59382 11.3299C2.94476 11.6622 3.51167 11.6622 3.86261 11.3299C4.21355 10.9977 4.21355 10.461 3.86261 10.1288L3.07074 9.37065H10.4225C11.4124 9.37065 12.2222 8.60397 12.2222 7.66692V0.852018C12.2222 0.383493 11.8173 0.000155449 11.3224 0.000155449C10.8275 0.000155449 10.4225 0.383493 10.4225 0.852018V7.66692H3.07074L3.86261 6.91728C4.21355 6.58505 4.21355 6.04838 3.86261 5.71615Z" fill="black"/>
</svg>
