<svg width="24" height="24" viewBox="0 0 24 24" fill="none" xmlns="http://www.w3.org/2000/svg">
<path d="M15.9995 19.7915C15.9995 20.3415 15.5495 20.7915 14.9995 20.7915C14.4495 20.7915 13.9995 20.3415 13.9995 19.7915V16.7915C13.2695 14.2115 10.9295 13.3215 8.82953 13.7915L9.70953 14.6715C10.0995 15.0615 10.0995 15.6915 9.70953 16.0815C9.31953 16.4715 8.68953 16.4715 8.29953 16.0815L5.70953 13.4915C5.31953 13.1015 5.31953 12.4715 5.70953 12.0815L8.29953 9.49148C8.68953 9.10148 9.31953 9.10148 9.70953 9.49148C10.0995 9.88148 10.0995 10.5115 9.70953 10.9015L8.82953 11.7915C10.3395 11.4615 12.5595 11.8715 13.9995 13.1515V6.62148L13.1195 7.50148C12.7295 7.89148 12.0995 7.89148 11.7095 7.50148C11.3195 7.11148 11.3195 6.48148 11.7095 6.09148L14.2995 3.50148C14.6895 3.11148 15.3195 3.11148 15.7095 3.50148L18.2895 6.08148C18.6795 6.47148 18.6795 7.10148 18.2895 7.49148C17.8995 7.88148 17.2695 7.88148 16.8795 7.49148L15.9995 6.62148V19.7915Z" fill="black"/>
</svg>
