<svg width="24" height="24" viewBox="0 0 24 24" fill="none" xmlns="http://www.w3.org/2000/svg">
<path d="M8.00047 19.7915C8.00047 20.3415 8.45047 20.7915 9.00047 20.7915C9.55047 20.7915 10.0005 20.3415 10.0005 19.7915V16.7915C10.7305 14.2115 13.0705 13.3215 15.1705 13.7915L14.2905 14.6715C13.9005 15.0615 13.9005 15.6915 14.2905 16.0815C14.6805 16.4715 15.3105 16.4715 15.7005 16.0815L18.2905 13.4915C18.6805 13.1015 18.6805 12.4715 18.2905 12.0815L15.7005 9.49148C15.3105 9.10148 14.6805 9.10148 14.2905 9.49148C13.9005 9.88148 13.9005 10.5115 14.2905 10.9015L15.1705 11.7915C13.6605 11.4615 11.4405 11.8715 10.0005 13.1515V6.62148L10.8805 7.50148C11.2705 7.89148 11.9005 7.89148 12.2905 7.50148C12.6805 7.11148 12.6805 6.48148 12.2905 6.09148L9.70047 3.50148C9.31047 3.11148 8.68047 3.11148 8.29047 3.50148L5.71047 6.08148C5.32047 6.47148 5.32047 7.10148 5.71047 7.49148C6.10047 7.88148 6.73047 7.88148 7.12047 7.49148L8.00047 6.62148V19.7915Z" fill="black"/>
</svg>
