<svg width="24" height="24" viewBox="0 0 24 24" fill="none" xmlns="http://www.w3.org/2000/svg">
<path d="M8.00539 4.20852C8.00539 3.65852 8.45539 3.20852 9.00539 3.20852C9.55539 3.20852 10.0054 3.65852 10.0054 4.20852V7.20852C10.7354 9.78852 13.0754 10.6785 15.1754 10.2085L14.2954 9.32852C13.9054 8.93852 13.9054 8.30852 14.2954 7.91852C14.6854 7.52851 15.3154 7.52851 15.7054 7.91852L18.2954 10.5085C18.6854 10.8985 18.6854 11.5285 18.2954 11.9185L15.7054 14.5085C15.3154 14.8985 14.6854 14.8985 14.2954 14.5085C13.9054 14.1185 13.9054 13.4885 14.2954 13.0985L15.1754 12.2085C13.6654 12.5385 11.4454 12.1285 10.0054 10.8485V17.3785L10.8854 16.4985C11.2754 16.1085 11.9054 16.1085 12.2954 16.4985C12.6854 16.8885 12.6854 17.5185 12.2954 17.9085L9.70539 20.4985C9.31539 20.8885 8.68539 20.8885 8.29539 20.4985L5.70539 17.9085C5.31539 17.5185 5.31539 16.8885 5.70539 16.4985C6.09539 16.1085 6.72539 16.1085 7.11539 16.4985L8.00539 17.3785V4.20852Z" fill="black"/>
</svg>
