<svg width="17" height="18" viewBox="0 0 17 18" fill="none" xmlns="http://www.w3.org/2000/svg">
<path d="M2.58254 14.3785L1.70254 13.4985C1.31254 13.1085 0.682539 13.1085 0.292539 13.4985C-0.0974607 13.8885 -0.0974607 14.5185 0.292539 14.9085L2.88254 17.4985C3.27254 17.8885 3.90254 17.8885 4.29254 17.4985L6.87254 14.9185C7.26254 14.5285 7.26254 13.8985 6.87254 13.5085C6.48254 13.1185 5.85254 13.1185 5.46254 13.5085L4.58254 14.3785V1.20852C4.58254 0.658516 4.13254 0.208515 3.58254 0.208515C3.03254 0.208515 2.58254 0.658516 2.58254 1.20852V14.3785Z" fill="black"/>
<path d="M13.7475 3.62148L14.6275 4.50148C15.0175 4.89148 15.6475 4.89148 16.0375 4.50148C16.4275 4.11148 16.4275 3.48148 16.0375 3.09148L13.4475 0.501484C13.0575 0.111484 12.4275 0.111484 12.0375 0.501484L9.45754 3.08148C9.06754 3.47148 9.06754 4.10148 9.45754 4.49148C9.84754 4.88148 10.4775 4.88148 10.8675 4.49148L11.7475 3.62148V16.7915C11.7475 17.3415 12.1975 17.7915 12.7475 17.7915C13.2975 17.7915 13.7475 17.3415 13.7475 16.7915V3.62148Z" fill="black"/>
</svg>
