<svg width="20" height="21" viewBox="0 0 20 21" fill="none" xmlns="http://www.w3.org/2000/svg">
<path d="M4.47635 6.4302C4.1605 6.11458 3.65029 6.11458 3.33444 6.4302L1.23689 8.52621C0.921038 8.84182 0.921038 9.35166 1.23689 9.66728L3.33444 11.7633C3.65029 12.0789 4.1605 12.0789 4.47635 11.7633C4.7922 11.4477 4.7922 10.9378 4.47635 10.6222L3.76367 9.90197H10.3803C11.2711 9.90197 12 9.17362 12 8.28343V1.80927C12 1.36417 11.6356 1 11.1901 1C10.7447 1 10.3803 1.36417 10.3803 1.80927V8.28343H3.76367L4.47635 7.57127C4.7922 7.25566 4.7922 6.74582 4.47635 6.4302Z" fill="black" stroke="black" stroke-width="0.2"/>
<path d="M15.5237 14.5698C15.8395 14.8854 16.3497 14.8854 16.6656 14.5698L18.7631 12.4738C19.079 12.1582 19.079 11.6483 18.7631 11.3327L16.6656 9.23671C16.3497 8.9211 15.8395 8.9211 15.5237 9.23671C15.2078 9.55233 15.2078 10.0622 15.5237 10.3778L16.2363 11.098H9.61973C8.72888 11.098 8 11.8264 8 12.7166V19.1907C8 19.6358 8.36444 20 8.80987 20C9.25529 20 9.61973 19.6358 9.61973 19.1907V12.7166H16.2363L15.5237 13.4287C15.2078 13.7443 15.2078 14.2542 15.5237 14.5698Z" fill="black" stroke="black" stroke-width="0.2"/>
</svg>
