<svg width="209" height="193" viewBox="0 0 209 193" fill="none" xmlns="http://www.w3.org/2000/svg">
<path d="M52.5 42.5L61.5 61.5L92.5 72.5L109 102H136L151 88.5L158.5 48L146.5 31.5L107.5 22L52.5 42.5Z" fill="#554FEB"/>
<path d="M41.9464 85.8523L41.9464 85.8523L41.9527 85.8468C42.2577 85.5778 42.5923 85.4404 43.0877 85.4404C43.5828 85.4404 43.8959 85.5769 44.1729 85.827C44.4469 86.0744 44.4904 86.2423 44.4904 86.4494C44.4904 86.5321 44.4858 86.7176 44.1254 87.0604L44.1251 87.0607C43.8415 87.3305 43.5441 87.4584 43.0877 87.4584C42.6305 87.4584 42.3119 87.3291 42.0009 87.0402C41.629 86.6947 41.6294 86.5195 41.6296 86.4535C41.6296 86.4521 41.6296 86.4507 41.6296 86.4494C41.6296 86.2567 41.666 86.0978 41.9464 85.8523ZM43.0877 119.834C42.4669 119.834 42.1664 119.702 42.0227 119.605V98.5137C42.2374 98.4316 42.5729 98.3575 43.0877 98.3575C43.6313 98.3575 43.9703 98.4372 44.2083 98.5398V119.565C43.9861 119.71 43.6498 119.834 43.0877 119.834ZM44.45 98.6707C44.45 98.6707 44.4495 98.6704 44.4487 98.6697L44.45 98.6707Z" fill="#554FEB" stroke="#554FEB" stroke-width="5" stroke-linejoin="round"/>
<path d="M62.5776 119.84C62.5271 119.836 62.4763 119.835 62.4252 119.835C59.3998 119.835 57.4976 119.173 56.3501 118.23L56.3476 118.228C55.3607 117.42 54.6138 115.962 54.6138 113.25V86.7926C55.0046 86.615 55.352 86.5459 55.6788 86.5459C56.1035 86.5459 56.4684 86.6256 56.7994 86.7757V95.8627C56.7994 97.2434 57.9187 98.3627 59.2994 98.3627H65.206C65.2088 98.4007 65.2104 98.441 65.2104 98.484C65.2104 98.527 65.2089 98.5674 65.206 98.6054H59.2994C57.9187 98.6054 56.7994 99.7247 56.7994 101.105V113.255C56.7994 114.576 57.0481 116.237 58.2713 117.403C59.4478 118.528 61.0822 118.765 62.4206 118.765H64.5938C64.8063 118.765 64.925 118.79 64.9768 118.805C65.1376 119.022 65.1595 119.161 65.1595 119.274C65.1595 119.458 65.1195 119.609 64.9779 119.799C64.9288 119.813 64.8107 119.84 64.5938 119.84H62.5776Z" fill="#554FEB" stroke="#554FEB" stroke-width="5" stroke-linejoin="round"/>
<path d="M86.2226 119.793C85.1699 120.132 83.9269 120.326 82.4753 120.342C82.4082 120.336 82.3407 120.334 82.2728 120.334C79.7199 120.334 77.8795 119.879 76.585 119.152L75.36 121.331L76.585 119.152C75.2104 118.379 74.261 117.376 73.6427 116.126C72.9775 114.782 72.6211 113.231 72.6211 111.41V106.953C72.6211 105.128 72.9717 103.566 73.6244 102.217C74.2204 100.986 75.1586 99.9893 76.5477 99.2165C77.8749 98.4782 79.6979 98.0293 82.1619 98.0293C83.7209 98.0293 85.0043 98.2113 86.0558 98.5338C87.1806 98.8803 87.8977 99.2809 88.3394 99.6598C88.4998 99.7974 88.5846 99.8979 88.6259 99.9549C88.6111 100.027 88.5764 100.15 88.4951 100.332L88.4918 100.339C88.4204 100.5 88.3292 100.648 88.2134 100.787C87.6525 100.461 87.0117 100.167 86.3131 99.8923L86.2992 99.8868C85.228 99.4732 83.9927 99.3307 82.7214 99.3307C80.4855 99.3307 78.3016 99.8654 76.7789 101.478L76.7745 101.483C75.3706 102.978 74.816 104.909 74.816 106.958V111.414C74.816 113.463 75.3706 115.395 76.7745 116.889C78.3089 118.523 80.528 119.042 82.7769 119.042C84.0862 119.042 85.4002 118.882 86.5121 118.363C87.1992 118.042 87.8136 117.722 88.3465 117.395C88.3644 117.385 88.378 117.377 88.3872 117.373C88.4491 117.375 88.4826 117.382 88.4948 117.385C88.6494 117.509 88.7559 117.649 88.8312 117.815C88.9155 118.006 88.9502 118.132 88.9645 118.202C88.9214 118.267 88.8245 118.392 88.627 118.565L88.6209 118.571C88.1594 118.979 87.4062 119.412 86.2226 119.793Z" fill="#554FEB" stroke="#554FEB" stroke-width="5" stroke-linejoin="round"/>
<mask id="path-5-inside-1_2318_5734" fill="white">
<path d="M168.525 72.7059L168.505 72.6816C168.505 72.6816 168.515 72.6768 168.52 72.6768V72.7059H168.525Z"/>
</mask>
<path d="M168.525 72.7059L168.505 72.6816C168.505 72.6816 168.515 72.6768 168.52 72.6768V72.7059H168.525Z" fill="white"/>
<path d="M168.525 72.7059V77.7059C170.447 77.7059 172.199 76.604 173.032 74.8715C173.864 73.139 173.63 71.0826 172.429 69.5818L168.525 72.7059ZM168.505 72.6816L166.27 68.2089C164.919 68.884 163.946 70.1336 163.622 71.6087C163.298 73.0839 163.658 74.6265 164.602 75.8057L168.505 72.6816ZM168.52 72.6768H173.52C173.52 69.9153 171.281 67.6768 168.52 67.6768V72.6768ZM168.52 72.7059H163.52C163.52 75.4674 165.759 77.7059 168.52 77.7059V72.7059ZM172.429 69.5818L172.409 69.5575L164.602 75.8057L164.621 75.83L172.429 69.5818ZM168.505 72.6816C170.74 77.1543 170.74 77.1546 170.739 77.1548C170.739 77.1549 170.739 77.1551 170.739 77.1552C170.738 77.1555 170.737 77.1558 170.737 77.1561C170.736 77.1567 170.734 77.1573 170.733 77.1579C170.731 77.1591 170.728 77.1603 170.726 77.1615C170.721 77.1639 170.716 77.1664 170.711 77.1689C170.701 77.1739 170.69 77.1792 170.678 77.1847C170.656 77.1956 170.63 77.2079 170.601 77.2212C170.547 77.246 170.467 77.2821 170.367 77.322C170.277 77.3577 170.108 77.4227 169.888 77.4854C169.745 77.5263 169.217 77.6768 168.52 77.6768V67.6768C167.821 67.6768 167.289 67.8278 167.143 67.8696C166.92 67.9332 166.747 67.9994 166.655 68.0364C166.552 68.0775 166.469 68.1148 166.413 68.1405C166.383 68.1542 166.356 68.1669 166.333 68.1781C166.322 68.1837 166.31 68.1891 166.3 68.1942C166.295 68.1968 166.29 68.1993 166.285 68.2017C166.282 68.203 166.28 68.2042 166.278 68.2054C166.276 68.206 166.275 68.2065 166.274 68.2071C166.273 68.2074 166.273 68.2077 166.272 68.208C166.272 68.2082 166.272 68.2084 166.271 68.2085C166.271 68.2087 166.27 68.2089 168.505 72.6816ZM163.52 72.6768V72.7059H173.52V72.6768H163.52ZM168.52 77.7059H168.525V67.7059H168.52V77.7059Z" fill="#554FEB" mask="url(#path-5-inside-1_2318_5734)"/>
<path d="M169.66 64.4961L165.206 39.8664C166.509 38.3742 167.304 36.4175 167.304 34.2771C167.304 29.5858 163.503 25.7805 158.811 25.7805C157.582 25.7805 156.412 26.0423 155.355 26.5142L126.428 9.74477C124.903 5.52039 120.86 2.5 116.107 2.5C112.395 2.5 109.119 4.34764 107.139 7.1626L79.394 8.06541C77.8388 6.14592 75.4607 4.91708 72.7954 4.91708C68.1033 4.91708 64.3023 8.72233 64.3023 13.4136C64.3023 13.6275 64.3103 13.8396 64.3261 14.0496L47.2062 29.5767C46.7679 29.5068 46.3195 29.4707 45.8632 29.4707C41.1711 29.4707 37.3701 33.2759 37.3701 37.9673C37.3701 42.0545 40.0528 45.2276 43.6403 46.1734L52.6235 67.3785C52.2998 68.2784 52.1224 69.2478 52.1224 70.2564C52.1224 74.9477 55.9234 78.753 60.6155 78.753C62.5854 78.753 64.4052 78.0799 65.8463 76.9496L85.8002 81.3949C86.5931 83.6418 88.3024 85.4507 90.479 86.3771L100.117 105.057C99.4978 106.236 99.1454 107.58 99.1454 109.003C99.1454 113.695 102.946 117.5 107.638 117.5C110.195 117.5 112.482 116.368 114.033 114.591L140.262 109.839C141.805 111.435 143.971 112.426 146.363 112.426C151.055 112.426 154.856 108.621 154.856 103.929C154.856 102.893 154.669 101.896 154.326 100.974L166.583 78.7713C169.949 77.6425 172.37 74.4668 172.37 70.7177C172.37 68.2634 171.326 66.0452 169.66 64.4961ZM144.195 38.0725L133.825 25.141L149.569 34.2696L144.195 38.0725ZM80.1508 17.6607L90.9388 17.3104L62.712 28.4867L70.3578 21.5534C71.1316 21.7858 71.9506 21.9102 72.7954 21.9102C75.9413 21.9102 78.6847 20.1986 80.1508 17.6607ZM88.288 72.1027L70.0172 68.034L106.495 30.8399L90.2287 70.8528C89.5227 71.1807 88.8706 71.6027 88.288 72.1027ZM158.295 55.6603L150.219 45.588L155.282 42.0079C155.475 42.096 155.671 42.1771 155.871 42.2509L158.295 55.6603ZM131.862 101.593L125.586 102.729L129.114 100.312L131.862 101.593ZM142.942 96.1509L138.328 94.0024L152.594 84.2289L146.407 95.433C146.392 95.4329 146.378 95.4329 146.363 95.4329C145.149 95.4329 143.99 95.6891 142.942 96.1509ZM155.844 67.9691C155.554 68.817 155.394 69.7242 155.389 70.6643L128.207 89.2848L104.242 78.1193L142.359 51.1513L155.844 67.9691ZM99.4749 24.2696L62.5051 61.9714C61.9158 61.8372 61.3044 61.7646 60.6778 61.7601L52.7234 42.9748C52.7882 42.886 52.8513 42.796 52.9127 42.7048L99.4749 24.2696ZM120.289 23.6247L136.335 43.6364L101.702 68.1419L119.711 23.8441C119.906 23.7763 120.098 23.7031 120.289 23.6247ZM118.994 95.5985L110.89 101.152C110.174 100.855 109.41 100.653 108.614 100.562L101.956 87.6584L118.994 95.5985Z" fill="white" stroke="#554FEB" stroke-width="5" stroke-linejoin="round"/>
<mask id="path-8-inside-2_2318_5734" fill="white">
<path d="M164.697 62.7518L164.677 62.7275C164.677 62.7275 164.687 62.7275 164.692 62.7275V62.7567L164.697 62.7518Z"/>
</mask>
<path d="M164.697 62.7518L164.677 62.7275C164.677 62.7275 164.687 62.7275 164.692 62.7275V62.7567L164.697 62.7518Z" fill="white"/>
<path d="M164.697 62.7518L168.231 66.289C170.034 64.4874 170.193 61.6176 168.601 59.6275L164.697 62.7518ZM164.677 62.7275V57.7275C162.755 57.7275 161.003 58.8295 160.171 60.5621C159.338 62.2947 159.573 64.3512 160.774 65.8519L164.677 62.7275ZM164.692 62.7275H169.692C169.692 59.9661 167.454 57.7275 164.692 57.7275V62.7275ZM164.692 62.7567H159.692C159.692 64.7786 160.91 66.6015 162.778 67.3757C164.645 68.1498 166.796 67.7229 168.226 66.2939L164.692 62.7567ZM168.601 59.6275L168.581 59.6032L160.774 65.8519L160.793 65.8762L168.601 59.6275ZM164.677 62.7275C164.677 67.7275 164.677 67.7275 164.677 67.7275C164.677 67.7275 164.677 67.7275 164.677 67.7275C164.677 67.7275 164.677 67.7275 164.677 67.7275C164.677 67.7275 164.677 67.7275 164.677 67.7275C164.677 67.7275 164.677 67.7275 164.677 67.7275C164.677 67.7275 164.677 67.7275 164.677 67.7275C164.677 67.7275 164.677 67.7275 164.677 67.7275C164.677 67.7275 164.677 67.7275 164.677 67.7275C164.677 67.7275 164.677 67.7275 164.677 67.7275C164.677 67.7275 164.678 67.7275 164.678 67.7275C164.678 67.7275 164.678 67.7275 164.678 67.7275C164.678 67.7275 164.678 67.7275 164.678 67.7275C164.678 67.7275 164.678 67.7275 164.678 67.7275C164.678 67.7275 164.678 67.7275 164.678 67.7275C164.678 67.7275 164.678 67.7275 164.678 67.7275C164.678 67.7275 164.678 67.7275 164.678 67.7275C164.678 67.7275 164.678 67.7275 164.678 67.7275C164.678 67.7275 164.678 67.7275 164.678 67.7275C164.678 67.7275 164.678 67.7275 164.678 67.7275C164.678 67.7275 164.678 67.7275 164.678 67.7275C164.678 67.7275 164.678 67.7275 164.678 67.7275C164.678 67.7275 164.678 67.7275 164.678 67.7275C164.678 67.7275 164.678 67.7275 164.678 67.7275C164.678 67.7275 164.678 67.7275 164.678 67.7275C164.678 67.7275 164.678 67.7275 164.678 67.7275C164.678 67.7275 164.678 67.7275 164.678 67.7275C164.678 67.7275 164.678 67.7275 164.678 67.7275C164.678 67.7275 164.678 67.7275 164.678 67.7275C164.678 67.7275 164.678 67.7275 164.678 67.7275C164.678 67.7275 164.678 67.7275 164.678 67.7275C164.678 67.7275 164.678 67.7275 164.678 67.7275C164.678 67.7275 164.678 67.7275 164.678 67.7275C164.678 67.7275 164.678 67.7275 164.678 67.7275C164.678 67.7275 164.678 67.7275 164.678 67.7275C164.678 67.7275 164.678 67.7275 164.678 67.7275C164.678 67.7275 164.678 67.7275 164.678 67.7275C164.678 67.7275 164.678 67.7275 164.678 67.7275C164.678 67.7275 164.678 67.7275 164.678 67.7275C164.678 67.7275 164.678 67.7275 164.678 67.7275C164.678 67.7275 164.678 67.7275 164.678 67.7275C164.678 67.7275 164.678 67.7275 164.678 67.7275C164.678 67.7275 164.678 67.7275 164.678 67.7275C164.678 67.7275 164.678 67.7275 164.678 67.7275C164.678 67.7275 164.678 67.7275 164.678 67.7275C164.678 67.7275 164.678 67.7275 164.678 67.7275C164.678 67.7275 164.678 67.7275 164.678 67.7275C164.678 67.7275 164.678 67.7275 164.678 67.7275C164.678 67.7275 164.678 67.7275 164.678 67.7275C164.678 67.7275 164.678 67.7275 164.678 67.7275C164.678 67.7275 164.678 67.7275 164.678 67.7275C164.678 67.7275 164.678 67.7275 164.678 67.7275C164.678 67.7275 164.678 67.7275 164.678 67.7275C164.678 67.7275 164.678 67.7275 164.678 67.7275C164.678 67.7275 164.678 67.7275 164.678 67.7275C164.678 67.7275 164.678 67.7275 164.678 67.7275C164.678 67.7275 164.678 67.7275 164.678 67.7275C164.678 67.7275 164.678 67.7275 164.678 67.7275C164.678 67.7275 164.678 67.7275 164.678 67.7275C164.678 67.7275 164.678 67.7275 164.678 67.7275C164.678 67.7275 164.678 67.7275 164.678 67.7275C164.678 67.7275 164.678 67.7275 164.678 67.7275C164.678 67.7275 164.678 67.7275 164.678 67.7275C164.678 67.7275 164.678 67.7275 164.678 67.7275C164.678 67.7275 164.678 67.7275 164.678 67.7275C164.678 67.7275 164.678 67.7275 164.678 67.7275C164.678 67.7275 164.678 67.7275 164.678 67.7275C164.678 67.7275 164.678 67.7275 164.678 67.7275C164.678 67.7275 164.678 67.7275 164.678 67.7275C164.678 67.7275 164.678 67.7275 164.678 67.7275C164.678 67.7275 164.678 67.7275 164.678 67.7275C164.678 67.7275 164.678 67.7275 164.678 67.7275C164.678 67.7275 164.678 67.7275 164.678 67.7275C164.678 67.7275 164.678 67.7275 164.678 67.7275C164.678 67.7275 164.678 67.7275 164.678 67.7275C164.678 67.7275 164.678 67.7275 164.678 67.7275C164.678 67.7275 164.678 67.7275 164.678 67.7275C164.678 67.7275 164.678 67.7275 164.678 67.7275C164.678 67.7275 164.678 67.7275 164.678 67.7275C164.678 67.7275 164.678 67.7275 164.678 67.7275C164.678 67.7275 164.678 67.7275 164.678 67.7275C164.678 67.7275 164.678 67.7275 164.678 67.7275C164.678 67.7275 164.678 67.7275 164.678 67.7275C164.678 67.7275 164.678 67.7275 164.678 67.7275C164.678 67.7275 164.678 67.7275 164.678 67.7275C164.678 67.7275 164.678 67.7275 164.678 67.7275C164.678 67.7275 164.678 67.7275 164.678 67.7275C164.678 67.7275 164.678 67.7275 164.678 67.7275C164.678 67.7275 164.678 67.7275 164.678 67.7275C164.678 67.7275 164.678 67.7275 164.678 67.7275C164.678 67.7275 164.678 67.7275 164.678 67.7275C164.678 67.7275 164.678 67.7275 164.678 67.7275C164.678 67.7275 164.678 67.7275 164.678 67.7275C164.678 67.7275 164.678 67.7275 164.678 67.7275C164.678 67.7275 164.678 67.7275 164.678 67.7275C164.678 67.7275 164.678 67.7275 164.678 67.7275C164.678 67.7275 164.678 67.7275 164.678 67.7275C164.678 67.7275 164.678 67.7275 164.678 67.7275C164.678 67.7275 164.678 67.7275 164.678 67.7275C164.678 67.7275 164.678 67.7275 164.678 67.7275C164.678 67.7275 164.678 67.7275 164.678 67.7275C164.679 67.7275 164.679 67.7275 164.679 67.7275C164.679 67.7275 164.679 67.7275 164.679 67.7275C164.679 67.7275 164.679 67.7275 164.679 67.7275C164.679 67.7275 164.679 67.7275 164.679 67.7275C164.679 67.7275 164.679 67.7275 164.679 67.7275C164.679 67.7275 164.679 67.7275 164.679 67.7275C164.679 67.7275 164.679 67.7275 164.679 67.7275C164.679 67.7275 164.679 67.7275 164.679 67.7275C164.679 67.7275 164.679 67.7275 164.679 67.7275C164.679 67.7275 164.679 67.7275 164.679 67.7275C164.679 67.7275 164.679 67.7275 164.679 67.7275C164.679 67.7275 164.679 67.7275 164.679 67.7275C164.679 67.7275 164.679 67.7275 164.679 67.7275C164.679 67.7275 164.679 67.7275 164.679 67.7275C164.679 67.7275 164.679 67.7275 164.679 67.7275C164.679 67.7275 164.679 67.7275 164.679 67.7275C164.679 67.7275 164.679 67.7275 164.679 67.7275C164.679 67.7275 164.679 67.7275 164.679 67.7275C164.679 67.7275 164.679 67.7275 164.679 67.7275C164.679 67.7275 164.679 67.7275 164.679 67.7275C164.679 67.7275 164.679 67.7275 164.679 67.7275C164.679 67.7275 164.679 67.7275 164.679 67.7275C164.679 67.7275 164.679 67.7275 164.679 67.7275C164.679 67.7275 164.679 67.7275 164.679 67.7275C164.679 67.7275 164.679 67.7275 164.679 67.7275C164.679 67.7275 164.679 67.7275 164.679 67.7275C164.679 67.7275 164.679 67.7275 164.679 67.7275C164.679 67.7275 164.679 67.7275 164.679 67.7275C164.679 67.7275 164.679 67.7275 164.679 67.7275C164.679 67.7275 164.679 67.7275 164.679 67.7275C164.679 67.7275 164.679 67.7275 164.679 67.7275C164.679 67.7275 164.679 67.7275 164.679 67.7275C164.679 67.7275 164.679 67.7275 164.679 67.7275C164.679 67.7275 164.679 67.7275 164.679 67.7275C164.679 67.7275 164.679 67.7275 164.679 67.7275C164.679 67.7275 164.679 67.7275 164.679 67.7275C164.679 67.7275 164.679 67.7275 164.679 67.7275C164.679 67.7275 164.679 67.7275 164.679 67.7275C164.679 67.7275 164.679 67.7275 164.679 67.7275C164.679 67.7275 164.679 67.7275 164.679 67.7275C164.679 67.7275 164.679 67.7275 164.679 67.7275C164.679 67.7275 164.679 67.7275 164.679 67.7275C164.679 67.7275 164.679 67.7275 164.679 67.7275C164.679 67.7275 164.679 67.7275 164.679 67.7275C164.679 67.7275 164.679 67.7275 164.679 67.7275C164.68 67.7275 164.68 67.7275 164.68 67.7275C164.68 67.7275 164.68 67.7275 164.68 67.7275C164.68 67.7275 164.68 67.7275 164.68 67.7275C164.68 67.7275 164.68 67.7275 164.68 67.7275C164.68 67.7275 164.68 67.7275 164.68 67.7275C164.68 67.7275 164.68 67.7275 164.68 67.7275C164.68 67.7275 164.68 67.7275 164.68 67.7275C164.68 67.7275 164.68 67.7275 164.68 67.7275C164.68 67.7275 164.68 67.7275 164.68 67.7275C164.68 67.7275 164.68 67.7275 164.68 67.7275C164.68 67.7275 164.68 67.7275 164.68 67.7275C164.68 67.7275 164.68 67.7275 164.68 67.7275C164.68 67.7275 164.68 67.7275 164.68 67.7275C164.68 67.7275 164.68 67.7275 164.68 67.7275C164.68 67.7275 164.68 67.7275 164.68 67.7275C164.68 67.7275 164.68 67.7275 164.68 67.7275C164.68 67.7275 164.68 67.7275 164.68 67.7275C164.68 67.7275 164.68 67.7275 164.68 67.7275C164.68 67.7275 164.68 67.7275 164.68 67.7275C164.68 67.7275 164.68 67.7275 164.68 67.7275C164.68 67.7275 164.68 67.7275 164.68 67.7275C164.68 67.7275 164.68 67.7275 164.68 67.7275C164.68 67.7275 164.68 67.7275 164.68 67.7275C164.68 67.7275 164.68 67.7275 164.68 67.7275C164.68 67.7275 164.68 67.7275 164.68 67.7275C164.68 67.7275 164.68 67.7275 164.68 67.7275C164.68 67.7275 164.68 67.7275 164.68 67.7275C164.68 67.7275 164.68 67.7275 164.68 67.7275C164.68 67.7275 164.68 67.7275 164.68 67.7275C164.68 67.7275 164.68 67.7275 164.68 67.7275C164.68 67.7275 164.68 67.7275 164.68 67.7275C164.68 67.7275 164.68 67.7275 164.68 67.7275C164.68 67.7275 164.68 67.7275 164.68 67.7275C164.68 67.7275 164.68 67.7275 164.68 67.7275C164.68 67.7275 164.68 67.7275 164.68 67.7275C164.68 67.7275 164.68 67.7275 164.68 67.7275C164.681 67.7275 164.681 67.7275 164.681 67.7275C164.681 67.7275 164.681 67.7275 164.681 67.7275C164.681 67.7275 164.681 67.7275 164.681 67.7275C164.681 67.7275 164.681 67.7275 164.681 67.7275C164.681 67.7275 164.681 67.7275 164.681 67.7275C164.681 67.7275 164.681 67.7275 164.681 67.7275C164.681 67.7275 164.681 67.7275 164.681 67.7275C164.681 67.7275 164.681 67.7275 164.681 67.7275C164.681 67.7275 164.681 67.7275 164.681 67.7275C164.681 67.7275 164.681 67.7275 164.681 67.7275C164.681 67.7275 164.681 67.7275 164.681 67.7275C164.681 67.7275 164.681 67.7275 164.681 67.7275C164.681 67.7275 164.681 67.7275 164.681 67.7275C164.681 67.7275 164.681 67.7275 164.681 67.7275C164.681 67.7275 164.681 67.7275 164.681 67.7275C164.681 67.7275 164.681 67.7275 164.681 67.7275C164.681 67.7275 164.681 67.7275 164.681 67.7275C164.681 67.7275 164.681 67.7275 164.681 67.7275C164.681 67.7275 164.681 67.7275 164.681 67.7275C164.681 67.7275 164.681 67.7275 164.681 67.7275C164.681 67.7275 164.681 67.7275 164.681 67.7275C164.681 67.7275 164.681 67.7275 164.681 67.7275C164.681 67.7275 164.681 67.7275 164.681 67.7275C164.681 67.7275 164.681 67.7275 164.681 67.7275C164.681 67.7275 164.681 67.7275 164.681 67.7275C164.681 67.7275 164.681 67.7275 164.681 67.7275C164.681 67.7275 164.681 67.7275 164.681 67.7275C164.681 67.7275 164.681 67.7275 164.681 67.7275C164.681 67.7275 164.681 67.7275 164.681 67.7275C164.681 67.7275 164.681 67.7275 164.681 67.7275C164.681 67.7275 164.681 67.7275 164.681 67.7275C164.681 67.7275 164.681 67.7275 164.681 67.7275C164.682 67.7275 164.682 67.7275 164.682 67.7275C164.682 67.7275 164.682 67.7275 164.682 67.7275C164.682 67.7275 164.682 67.7275 164.682 67.7275C164.682 67.7275 164.682 67.7275 164.682 67.7275C164.682 67.7275 164.682 67.7275 164.682 67.7275C164.682 67.7275 164.682 67.7275 164.682 67.7275C164.682 67.7275 164.682 67.7275 164.682 67.7275C164.682 67.7275 164.682 67.7275 164.682 67.7275C164.682 67.7275 164.682 67.7275 164.682 67.7275C164.682 67.7275 164.682 67.7275 164.682 67.7275C164.682 67.7275 164.682 67.7275 164.682 67.7275C164.682 67.7275 164.682 67.7275 164.682 67.7275C164.682 67.7275 164.682 67.7275 164.682 67.7275C164.682 67.7275 164.682 67.7275 164.682 67.7275C164.682 67.7275 164.682 67.7275 164.682 67.7275C164.682 67.7275 164.682 67.7275 164.682 67.7275C164.682 67.7275 164.682 67.7275 164.682 67.7275C164.682 67.7275 164.682 67.7275 164.682 67.7275C164.682 67.7275 164.682 67.7275 164.682 67.7275C164.682 67.7275 164.682 67.7275 164.682 67.7275C164.682 67.7275 164.682 67.7275 164.682 67.7275C164.682 67.7275 164.682 67.7275 164.682 67.7275C164.682 67.7275 164.682 67.7275 164.682 67.7275C164.682 67.7275 164.682 67.7275 164.682 67.7275C164.682 67.7275 164.682 67.7275 164.682 67.7275C164.682 67.7275 164.682 67.7275 164.682 67.7275C164.682 67.7275 164.682 67.7275 164.682 67.7275C164.682 67.7275 164.682 67.7275 164.682 67.7275C164.682 67.7275 164.682 67.7275 164.682 67.7275C164.682 67.7275 164.682 67.7275 164.683 67.7275C164.683 67.7275 164.683 67.7275 164.683 67.7275C164.683 67.7275 164.683 67.7275 164.683 67.7275C164.683 67.7275 164.683 67.7275 164.683 67.7275C164.683 67.7275 164.683 67.7275 164.683 67.7275C164.683 67.7275 164.683 67.7275 164.683 67.7275C164.683 67.7275 164.683 67.7275 164.683 67.7275C164.683 67.7275 164.683 67.7275 164.683 67.7275C164.683 67.7275 164.683 67.7275 164.683 67.7275C164.683 67.7275 164.683 67.7275 164.683 67.7275C164.683 67.7275 164.683 67.7275 164.683 67.7275C164.683 67.7275 164.683 67.7275 164.683 67.7275C164.683 67.7275 164.683 67.7275 164.683 67.7275C164.683 67.7275 164.683 67.7275 164.683 67.7275C164.683 67.7275 164.683 67.7275 164.683 67.7275C164.683 67.7275 164.683 67.7275 164.683 67.7275C164.683 67.7275 164.683 67.7275 164.683 67.7275C164.683 67.7275 164.683 67.7275 164.683 67.7275C164.683 67.7275 164.683 67.7275 164.683 67.7275C164.683 67.7275 164.683 67.7275 164.683 67.7275C164.683 67.7275 164.683 67.7275 164.683 67.7275C164.683 67.7275 164.683 67.7275 164.683 67.7275C164.683 67.7275 164.683 67.7275 164.683 67.7275C164.683 67.7275 164.683 67.7275 164.683 67.7275C164.683 67.7275 164.683 67.7275 164.683 67.7275C164.683 67.7275 164.683 67.7275 164.683 67.7275C164.683 67.7275 164.683 67.7275 164.683 67.7275C164.683 67.7275 164.683 67.7275 164.683 67.7275C164.683 67.7275 164.683 67.7275 164.684 67.7275C164.684 67.7275 164.684 67.7275 164.684 67.7275C164.684 67.7275 164.684 67.7275 164.684 67.7275C164.684 67.7275 164.684 67.7275 164.684 67.7275C164.684 67.7275 164.684 67.7275 164.684 67.7275C164.684 67.7275 164.684 67.7275 164.684 67.7275C164.684 67.7275 164.684 67.7275 164.684 67.7275C164.684 67.7275 164.684 67.7275 164.684 67.7275C164.684 67.7275 164.684 67.7275 164.684 67.7275C164.684 67.7275 164.684 67.7275 164.684 67.7275C164.684 67.7275 164.684 67.7275 164.684 67.7275C164.684 67.7275 164.684 67.7275 164.684 67.7275C164.684 67.7275 164.684 67.7275 164.684 67.7275C164.684 67.7275 164.684 67.7275 164.684 67.7275C164.684 67.7275 164.684 67.7275 164.684 67.7275C164.684 67.7275 164.684 67.7275 164.684 67.7275C164.684 67.7275 164.684 67.7275 164.684 67.7275C164.684 67.7275 164.684 67.7275 164.684 67.7275C164.684 67.7275 164.684 67.7275 164.684 67.7275C164.684 67.7275 164.684 67.7275 164.684 67.7275C164.684 67.7275 164.684 67.7275 164.684 67.7275C164.684 67.7275 164.684 67.7275 164.684 67.7275C164.684 67.7275 164.684 67.7275 164.684 67.7275C164.684 67.7275 164.684 67.7275 164.684 67.7275C164.684 67.7275 164.684 67.7275 164.684 67.7275C164.684 67.7275 164.684 67.7275 164.684 67.7275C164.684 67.7275 164.684 67.7275 164.684 67.7275C164.684 67.7275 164.684 67.7275 164.684 67.7275C164.685 67.7275 164.685 67.7275 164.685 67.7275C164.685 67.7275 164.685 67.7275 164.685 67.7275C164.685 67.7275 164.685 67.7275 164.685 67.7275C164.685 67.7275 164.685 67.7275 164.685 67.7275C164.685 67.7275 164.685 67.7275 164.685 67.7275C164.685 67.7275 164.685 67.7275 164.685 67.7275C164.685 67.7275 164.685 67.7275 164.685 67.7275C164.685 67.7275 164.685 67.7275 164.685 67.7275C164.685 67.7275 164.685 67.7275 164.685 67.7275C164.685 67.7275 164.685 67.7275 164.685 67.7275C164.685 67.7275 164.685 67.7275 164.685 67.7275C164.685 67.7275 164.685 67.7275 164.685 67.7275C164.685 67.7275 164.685 67.7275 164.685 67.7275C164.685 67.7275 164.685 67.7275 164.685 67.7275C164.685 67.7275 164.685 67.7275 164.685 67.7275C164.685 67.7275 164.685 67.7275 164.685 67.7275C164.685 67.7275 164.685 67.7275 164.685 67.7275C164.685 67.7275 164.685 67.7275 164.685 67.7275C164.685 67.7275 164.685 67.7275 164.685 67.7275C164.685 67.7275 164.685 67.7275 164.685 67.7275C164.685 67.7275 164.685 67.7275 164.685 67.7275C164.685 67.7275 164.685 67.7275 164.685 67.7275C164.685 67.7275 164.685 67.7275 164.685 67.7275C164.685 67.7275 164.685 67.7275 164.685 67.7275C164.685 67.7275 164.685 67.7275 164.685 67.7275C164.685 67.7275 164.685 67.7275 164.685 67.7275C164.685 67.7275 164.686 67.7275 164.686 67.7275C164.686 67.7275 164.686 67.7275 164.686 67.7275C164.686 67.7275 164.686 67.7275 164.686 67.7275C164.686 67.7275 164.686 67.7275 164.686 67.7275C164.686 67.7275 164.686 67.7275 164.686 67.7275C164.686 67.7275 164.686 67.7275 164.686 67.7275C164.686 67.7275 164.686 67.7275 164.686 67.7275C164.686 67.7275 164.686 67.7275 164.686 67.7275C164.686 67.7275 164.686 67.7275 164.686 67.7275C164.686 67.7275 164.686 67.7275 164.686 67.7275C164.686 67.7275 164.686 67.7275 164.686 67.7275C164.686 67.7275 164.686 67.7275 164.686 67.7275C164.686 67.7275 164.686 67.7275 164.686 67.7275C164.686 67.7275 164.686 67.7275 164.686 67.7275C164.686 67.7275 164.686 67.7275 164.686 67.7275C164.686 67.7275 164.686 67.7275 164.686 67.7275C164.686 67.7275 164.686 67.7275 164.686 67.7275C164.686 67.7275 164.686 67.7275 164.686 67.7275C164.686 67.7275 164.686 67.7275 164.686 67.7275C164.686 67.7275 164.686 67.7275 164.686 67.7275C164.686 67.7275 164.686 67.7275 164.686 67.7275C164.686 67.7275 164.686 67.7275 164.686 67.7275C164.686 67.7275 164.686 67.7275 164.686 67.7275C164.686 67.7275 164.686 67.7275 164.686 67.7275C164.686 67.7275 164.686 67.7275 164.686 67.7275C164.686 67.7275 164.686 67.7275 164.686 67.7275C164.686 67.7275 164.686 67.7275 164.687 67.7275C164.687 67.7275 164.687 67.7275 164.687 67.7275C164.687 67.7275 164.687 67.7275 164.687 67.7275C164.687 67.7275 164.687 67.7275 164.687 67.7275C164.687 67.7275 164.687 67.7275 164.687 67.7275C164.687 67.7275 164.687 67.7275 164.687 67.7275C164.687 67.7275 164.687 67.7275 164.687 67.7275C164.687 67.7275 164.687 67.7275 164.687 67.7275C164.687 67.7275 164.687 67.7275 164.687 67.7275C164.687 67.7275 164.687 67.7275 164.687 67.7275C164.687 67.7275 164.687 67.7275 164.687 67.7275C164.687 67.7275 164.687 67.7275 164.687 67.7275C164.687 67.7275 164.687 67.7275 164.687 67.7275C164.687 67.7275 164.687 67.7275 164.687 67.7275C164.687 67.7275 164.687 67.7275 164.687 67.7275C164.687 67.7275 164.687 67.7275 164.687 67.7275C164.687 67.7275 164.687 67.7275 164.687 67.7275C164.687 67.7275 164.687 67.7275 164.687 67.7275C164.687 67.7275 164.687 67.7275 164.687 67.7275C164.687 67.7275 164.687 67.7275 164.687 67.7275C164.687 67.7275 164.687 67.7275 164.687 67.7275C164.687 67.7275 164.687 67.7275 164.687 67.7275C164.687 67.7275 164.687 67.7275 164.687 67.7275C164.687 67.7275 164.687 67.7275 164.687 67.7275C164.687 67.7275 164.687 67.7275 164.687 67.7275C164.687 67.7275 164.687 67.7275 164.687 67.7275C164.687 67.7275 164.687 67.7275 164.687 67.7275C164.687 67.7275 164.688 67.7275 164.688 67.7275C164.688 67.7275 164.688 67.7275 164.688 67.7275C164.688 67.7275 164.688 67.7275 164.688 67.7275C164.688 67.7275 164.688 67.7275 164.688 67.7275C164.688 67.7275 164.688 67.7275 164.688 67.7275C164.688 67.7275 164.688 67.7275 164.688 67.7275C164.688 67.7275 164.688 67.7275 164.688 67.7275C164.688 67.7275 164.688 67.7275 164.688 67.7275C164.688 67.7275 164.688 67.7275 164.688 67.7275C164.688 67.7275 164.688 67.7275 164.688 67.7275C164.688 67.7275 164.688 67.7275 164.688 67.7275C164.688 67.7275 164.688 67.7275 164.688 67.7275C164.688 67.7275 164.688 67.7275 164.688 67.7275C164.688 67.7275 164.688 67.7275 164.688 67.7275C164.688 67.7275 164.688 67.7275 164.688 67.7275C164.688 67.7275 164.688 67.7275 164.688 67.7275C164.688 67.7275 164.688 67.7275 164.688 67.7275C164.688 67.7275 164.688 67.7275 164.688 67.7275C164.688 67.7275 164.688 67.7275 164.688 67.7275C164.688 67.7275 164.688 67.7275 164.688 67.7275C164.688 67.7275 164.688 67.7275 164.688 67.7275C164.688 67.7275 164.688 67.7275 164.688 67.7275C164.688 67.7275 164.688 67.7275 164.688 67.7275C164.688 67.7275 164.688 67.7275 164.688 67.7275C164.688 67.7275 164.688 67.7275 164.688 67.7275C164.688 67.7275 164.688 67.7275 164.688 67.7275C164.688 67.7275 164.688 67.7275 164.688 67.7275C164.689 67.7275 164.689 67.7275 164.689 67.7275C164.689 67.7275 164.689 67.7275 164.689 67.7275C164.689 67.7275 164.689 67.7275 164.689 67.7275C164.689 67.7275 164.689 67.7275 164.689 67.7275C164.689 67.7275 164.689 67.7275 164.689 67.7275C164.689 67.7275 164.689 67.7275 164.689 67.7275C164.689 67.7275 164.689 67.7275 164.689 67.7275C164.689 67.7275 164.689 67.7275 164.689 67.7275C164.689 67.7275 164.689 67.7275 164.689 67.7275C164.689 67.7275 164.689 67.7275 164.689 67.7275C164.689 67.7275 164.689 67.7275 164.689 67.7275C164.689 67.7275 164.689 67.7275 164.689 67.7275C164.689 67.7275 164.689 67.7275 164.689 67.7275C164.689 67.7275 164.689 67.7275 164.689 67.7275C164.689 67.7275 164.689 67.7275 164.689 67.7275C164.689 67.7275 164.689 67.7275 164.689 67.7275C164.689 67.7275 164.689 67.7275 164.689 67.7275C164.689 67.7275 164.689 67.7275 164.689 67.7275C164.689 67.7275 164.689 67.7275 164.689 67.7275C164.689 67.7275 164.689 67.7275 164.689 67.7275C164.689 67.7275 164.689 67.7275 164.689 67.7275C164.689 67.7275 164.689 67.7275 164.689 67.7275C164.689 67.7275 164.689 67.7275 164.689 67.7275C164.689 67.7275 164.689 67.7275 164.689 67.7275C164.689 67.7275 164.689 67.7275 164.689 67.7275C164.689 67.7275 164.689 67.7275 164.689 67.7275C164.689 67.7275 164.689 67.7275 164.689 67.7275C164.689 67.7275 164.689 67.7275 164.689 67.7275C164.69 67.7275 164.69 67.7275 164.69 67.7275C164.69 67.7275 164.69 67.7275 164.69 67.7275C164.69 67.7275 164.69 67.7275 164.69 67.7275C164.69 67.7275 164.69 67.7275 164.69 67.7275C164.69 67.7275 164.69 67.7275 164.69 67.7275C164.69 67.7275 164.69 67.7275 164.69 67.7275C164.69 67.7275 164.69 67.7275 164.69 67.7275C164.69 67.7275 164.69 67.7275 164.69 67.7275C164.69 67.7275 164.69 67.7275 164.69 67.7275C164.69 67.7275 164.69 67.7275 164.69 67.7275C164.69 67.7275 164.69 67.7275 164.69 67.7275C164.69 67.7275 164.69 67.7275 164.69 67.7275C164.69 67.7275 164.69 67.7275 164.69 67.7275C164.69 67.7275 164.69 67.7275 164.69 67.7275C164.69 67.7275 164.69 67.7275 164.69 67.7275C164.69 67.7275 164.69 67.7275 164.69 67.7275C164.69 67.7275 164.69 67.7275 164.69 67.7275C164.69 67.7275 164.69 67.7275 164.69 67.7275C164.69 67.7275 164.69 67.7275 164.69 67.7275C164.69 67.7275 164.69 67.7275 164.69 67.7275C164.69 67.7275 164.69 67.7275 164.69 67.7275C164.69 67.7275 164.69 67.7275 164.69 67.7275C164.69 67.7275 164.69 67.7275 164.69 67.7275C164.69 67.7275 164.69 67.7275 164.69 67.7275C164.69 67.7275 164.69 67.7275 164.69 67.7275C164.69 67.7275 164.69 67.7275 164.69 67.7275C164.69 67.7275 164.69 67.7275 164.69 67.7275C164.69 67.7275 164.69 67.7275 164.69 67.7275C164.69 67.7275 164.69 67.7275 164.69 67.7275C164.691 67.7275 164.691 67.7275 164.691 67.7275C164.691 67.7275 164.691 67.7275 164.691 67.7275C164.691 67.7275 164.691 67.7275 164.691 67.7275C164.691 67.7275 164.691 67.7275 164.691 67.7275C164.691 67.7275 164.691 67.7275 164.691 67.7275C164.691 67.7275 164.691 67.7275 164.691 67.7275C164.691 67.7275 164.691 67.7275 164.691 67.7275C164.691 67.7275 164.691 67.7275 164.691 67.7275C164.691 67.7275 164.691 67.7275 164.691 67.7275C164.691 67.7275 164.691 67.7275 164.691 67.7275C164.691 67.7275 164.691 67.7275 164.691 67.7275C164.691 67.7275 164.691 67.7275 164.691 67.7275C164.691 67.7275 164.691 67.7275 164.691 67.7275C164.691 67.7275 164.691 67.7275 164.691 67.7275C164.691 67.7275 164.691 67.7275 164.691 67.7275C164.691 67.7275 164.691 67.7275 164.691 67.7275C164.691 67.7275 164.691 67.7275 164.691 67.7275C164.691 67.7275 164.691 67.7275 164.691 67.7275C164.691 67.7275 164.691 67.7275 164.691 67.7275C164.691 67.7275 164.691 67.7275 164.691 67.7275C164.691 67.7275 164.691 67.7275 164.691 67.7275C164.691 67.7275 164.691 67.7275 164.691 67.7275C164.691 67.7275 164.691 67.7275 164.691 67.7275C164.691 67.7275 164.691 67.7275 164.691 67.7275C164.691 67.7275 164.691 67.7275 164.691 67.7275C164.691 67.7275 164.691 67.7275 164.691 67.7275C164.691 67.7275 164.691 67.7275 164.691 67.7275C164.691 67.7275 164.691 67.7275 164.691 67.7275C164.691 67.7275 164.691 67.7275 164.691 67.7275C164.691 67.7275 164.691 67.7275 164.691 67.7275C164.691 67.7275 164.691 67.7275 164.691 67.7275C164.691 67.7275 164.692 67.7275 164.692 67.7275C164.692 67.7275 164.692 67.7275 164.692 67.7275C164.692 67.7275 164.692 67.7275 164.692 67.7275C164.692 67.7275 164.692 67.7275 164.692 67.7275C164.692 67.7275 164.692 67.7275 164.692 67.7275C164.692 67.7275 164.692 67.7275 164.692 67.7275C164.692 67.7275 164.692 67.7275 164.692 67.7275C164.692 67.7275 164.692 67.7275 164.692 67.7275C164.692 67.7275 164.692 67.7275 164.692 67.7275C164.692 67.7275 164.692 67.7275 164.692 67.7275C164.692 67.7275 164.692 67.7275 164.692 67.7275C164.692 67.7275 164.692 67.7275 164.692 67.7275C164.692 67.7275 164.692 67.7275 164.692 67.7275C164.692 67.7275 164.692 67.7275 164.692 67.7275C164.692 67.7275 164.692 67.7275 164.692 67.7275C164.692 67.7275 164.692 67.7275 164.692 67.7275C164.692 67.7275 164.692 67.7275 164.692 67.7275C164.692 67.7275 164.692 67.7275 164.692 67.7275C164.692 67.7275 164.692 67.7275 164.692 67.7275C164.692 67.7275 164.692 67.7275 164.692 67.7275V57.7275C164.692 57.7275 164.692 57.7275 164.692 57.7275C164.692 57.7275 164.692 57.7275 164.692 57.7275C164.692 57.7275 164.692 57.7275 164.692 57.7275C164.692 57.7275 164.692 57.7275 164.692 57.7275C164.692 57.7275 164.692 57.7275 164.692 57.7275C164.692 57.7275 164.692 57.7275 164.692 57.7275C164.692 57.7275 164.692 57.7275 164.692 57.7275C164.692 57.7275 164.692 57.7275 164.692 57.7275C164.692 57.7275 164.692 57.7275 164.692 57.7275C164.692 57.7275 164.692 57.7275 164.692 57.7275C164.692 57.7275 164.692 57.7275 164.692 57.7275C164.692 57.7275 164.692 57.7275 164.692 57.7275C164.692 57.7275 164.692 57.7275 164.692 57.7275C164.692 57.7275 164.692 57.7275 164.692 57.7275C164.692 57.7275 164.692 57.7275 164.692 57.7275C164.692 57.7275 164.692 57.7275 164.692 57.7275C164.692 57.7275 164.692 57.7275 164.692 57.7275C164.692 57.7275 164.692 57.7275 164.692 57.7275C164.692 57.7275 164.692 57.7275 164.692 57.7275C164.692 57.7275 164.691 57.7275 164.691 57.7275C164.691 57.7275 164.691 57.7275 164.691 57.7275C164.691 57.7275 164.691 57.7275 164.691 57.7275C164.691 57.7275 164.691 57.7275 164.691 57.7275C164.691 57.7275 164.691 57.7275 164.691 57.7275C164.691 57.7275 164.691 57.7275 164.691 57.7275C164.691 57.7275 164.691 57.7275 164.691 57.7275C164.691 57.7275 164.691 57.7275 164.691 57.7275C164.691 57.7275 164.691 57.7275 164.691 57.7275C164.691 57.7275 164.691 57.7275 164.691 57.7275C164.691 57.7275 164.691 57.7275 164.691 57.7275C164.691 57.7275 164.691 57.7275 164.691 57.7275C164.691 57.7275 164.691 57.7275 164.691 57.7275C164.691 57.7275 164.691 57.7275 164.691 57.7275C164.691 57.7275 164.691 57.7275 164.691 57.7275C164.691 57.7275 164.691 57.7275 164.691 57.7275C164.691 57.7275 164.691 57.7275 164.691 57.7275C164.691 57.7275 164.691 57.7275 164.691 57.7275C164.691 57.7275 164.691 57.7275 164.691 57.7275C164.691 57.7275 164.691 57.7275 164.691 57.7275C164.691 57.7275 164.691 57.7275 164.691 57.7275C164.691 57.7275 164.691 57.7275 164.691 57.7275C164.691 57.7275 164.691 57.7275 164.691 57.7275C164.691 57.7275 164.691 57.7275 164.691 57.7275C164.691 57.7275 164.691 57.7275 164.691 57.7275C164.691 57.7275 164.691 57.7275 164.691 57.7275C164.691 57.7275 164.691 57.7275 164.691 57.7275C164.691 57.7275 164.691 57.7275 164.691 57.7275C164.691 57.7275 164.691 57.7275 164.691 57.7275C164.691 57.7275 164.691 57.7275 164.691 57.7275C164.691 57.7275 164.691 57.7275 164.691 57.7275C164.691 57.7275 164.691 57.7275 164.69 57.7275C164.69 57.7275 164.69 57.7275 164.69 57.7275C164.69 57.7275 164.69 57.7275 164.69 57.7275C164.69 57.7275 164.69 57.7275 164.69 57.7275C164.69 57.7275 164.69 57.7275 164.69 57.7275C164.69 57.7275 164.69 57.7275 164.69 57.7275C164.69 57.7275 164.69 57.7275 164.69 57.7275C164.69 57.7275 164.69 57.7275 164.69 57.7275C164.69 57.7275 164.69 57.7275 164.69 57.7275C164.69 57.7275 164.69 57.7275 164.69 57.7275C164.69 57.7275 164.69 57.7275 164.69 57.7275C164.69 57.7275 164.69 57.7275 164.69 57.7275C164.69 57.7275 164.69 57.7275 164.69 57.7275C164.69 57.7275 164.69 57.7275 164.69 57.7275C164.69 57.7275 164.69 57.7275 164.69 57.7275C164.69 57.7275 164.69 57.7275 164.69 57.7275C164.69 57.7275 164.69 57.7275 164.69 57.7275C164.69 57.7275 164.69 57.7275 164.69 57.7275C164.69 57.7275 164.69 57.7275 164.69 57.7275C164.69 57.7275 164.69 57.7275 164.69 57.7275C164.69 57.7275 164.69 57.7275 164.69 57.7275C164.69 57.7275 164.69 57.7275 164.69 57.7275C164.69 57.7275 164.69 57.7275 164.69 57.7275C164.69 57.7275 164.69 57.7275 164.69 57.7275C164.69 57.7275 164.69 57.7275 164.69 57.7275C164.69 57.7275 164.69 57.7275 164.69 57.7275C164.69 57.7275 164.69 57.7275 164.69 57.7275C164.69 57.7275 164.69 57.7275 164.69 57.7275C164.69 57.7275 164.69 57.7275 164.69 57.7275C164.69 57.7275 164.69 57.7275 164.689 57.7275C164.689 57.7275 164.689 57.7275 164.689 57.7275C164.689 57.7275 164.689 57.7275 164.689 57.7275C164.689 57.7275 164.689 57.7275 164.689 57.7275C164.689 57.7275 164.689 57.7275 164.689 57.7275C164.689 57.7275 164.689 57.7275 164.689 57.7275C164.689 57.7275 164.689 57.7275 164.689 57.7275C164.689 57.7275 164.689 57.7275 164.689 57.7275C164.689 57.7275 164.689 57.7275 164.689 57.7275C164.689 57.7275 164.689 57.7275 164.689 57.7275C164.689 57.7275 164.689 57.7275 164.689 57.7275C164.689 57.7275 164.689 57.7275 164.689 57.7275C164.689 57.7275 164.689 57.7275 164.689 57.7275C164.689 57.7275 164.689 57.7275 164.689 57.7275C164.689 57.7275 164.689 57.7275 164.689 57.7275C164.689 57.7275 164.689 57.7275 164.689 57.7275C164.689 57.7275 164.689 57.7275 164.689 57.7275C164.689 57.7275 164.689 57.7275 164.689 57.7275C164.689 57.7275 164.689 57.7275 164.689 57.7275C164.689 57.7275 164.689 57.7275 164.689 57.7275C164.689 57.7275 164.689 57.7275 164.689 57.7275C164.689 57.7275 164.689 57.7275 164.689 57.7275C164.689 57.7275 164.689 57.7275 164.689 57.7275C164.689 57.7275 164.689 57.7275 164.689 57.7275C164.689 57.7275 164.689 57.7275 164.689 57.7275C164.689 57.7275 164.689 57.7275 164.689 57.7275C164.689 57.7275 164.689 57.7275 164.689 57.7275C164.689 57.7275 164.689 57.7275 164.689 57.7275C164.689 57.7275 164.689 57.7275 164.688 57.7275C164.688 57.7275 164.688 57.7275 164.688 57.7275C164.688 57.7275 164.688 57.7275 164.688 57.7275C164.688 57.7275 164.688 57.7275 164.688 57.7275C164.688 57.7275 164.688 57.7275 164.688 57.7275C164.688 57.7275 164.688 57.7275 164.688 57.7275C164.688 57.7275 164.688 57.7275 164.688 57.7275C164.688 57.7275 164.688 57.7275 164.688 57.7275C164.688 57.7275 164.688 57.7275 164.688 57.7275C164.688 57.7275 164.688 57.7275 164.688 57.7275C164.688 57.7275 164.688 57.7275 164.688 57.7275C164.688 57.7275 164.688 57.7275 164.688 57.7275C164.688 57.7275 164.688 57.7275 164.688 57.7275C164.688 57.7275 164.688 57.7275 164.688 57.7275C164.688 57.7275 164.688 57.7275 164.688 57.7275C164.688 57.7275 164.688 57.7275 164.688 57.7275C164.688 57.7275 164.688 57.7275 164.688 57.7275C164.688 57.7275 164.688 57.7275 164.688 57.7275C164.688 57.7275 164.688 57.7275 164.688 57.7275C164.688 57.7275 164.688 57.7275 164.688 57.7275C164.688 57.7275 164.688 57.7275 164.688 57.7275C164.688 57.7275 164.688 57.7275 164.688 57.7275C164.688 57.7275 164.688 57.7275 164.688 57.7275C164.688 57.7275 164.688 57.7275 164.688 57.7275C164.688 57.7275 164.688 57.7275 164.688 57.7275C164.688 57.7275 164.688 57.7275 164.688 57.7275C164.688 57.7275 164.688 57.7275 164.688 57.7275C164.688 57.7275 164.687 57.7275 164.687 57.7275C164.687 57.7275 164.687 57.7275 164.687 57.7275C164.687 57.7275 164.687 57.7275 164.687 57.7275C164.687 57.7275 164.687 57.7275 164.687 57.7275C164.687 57.7275 164.687 57.7275 164.687 57.7275C164.687 57.7275 164.687 57.7275 164.687 57.7275C164.687 57.7275 164.687 57.7275 164.687 57.7275C164.687 57.7275 164.687 57.7275 164.687 57.7275C164.687 57.7275 164.687 57.7275 164.687 57.7275C164.687 57.7275 164.687 57.7275 164.687 57.7275C164.687 57.7275 164.687 57.7275 164.687 57.7275C164.687 57.7275 164.687 57.7275 164.687 57.7275C164.687 57.7275 164.687 57.7275 164.687 57.7275C164.687 57.7275 164.687 57.7275 164.687 57.7275C164.687 57.7275 164.687 57.7275 164.687 57.7275C164.687 57.7275 164.687 57.7275 164.687 57.7275C164.687 57.7275 164.687 57.7275 164.687 57.7275C164.687 57.7275 164.687 57.7275 164.687 57.7275C164.687 57.7275 164.687 57.7275 164.687 57.7275C164.687 57.7275 164.687 57.7275 164.687 57.7275C164.687 57.7275 164.687 57.7275 164.687 57.7275C164.687 57.7275 164.687 57.7275 164.687 57.7275C164.687 57.7275 164.687 57.7275 164.687 57.7275C164.687 57.7275 164.687 57.7275 164.687 57.7275C164.687 57.7275 164.687 57.7275 164.687 57.7275C164.687 57.7275 164.687 57.7275 164.687 57.7275C164.687 57.7275 164.687 57.7275 164.687 57.7275C164.686 57.7275 164.686 57.7275 164.686 57.7275C164.686 57.7275 164.686 57.7275 164.686 57.7275C164.686 57.7275 164.686 57.7275 164.686 57.7275C164.686 57.7275 164.686 57.7275 164.686 57.7275C164.686 57.7275 164.686 57.7275 164.686 57.7275C164.686 57.7275 164.686 57.7275 164.686 57.7275C164.686 57.7275 164.686 57.7275 164.686 57.7275C164.686 57.7275 164.686 57.7275 164.686 57.7275C164.686 57.7275 164.686 57.7275 164.686 57.7275C164.686 57.7275 164.686 57.7275 164.686 57.7275C164.686 57.7275 164.686 57.7275 164.686 57.7275C164.686 57.7275 164.686 57.7275 164.686 57.7275C164.686 57.7275 164.686 57.7275 164.686 57.7275C164.686 57.7275 164.686 57.7275 164.686 57.7275C164.686 57.7275 164.686 57.7275 164.686 57.7275C164.686 57.7275 164.686 57.7275 164.686 57.7275C164.686 57.7275 164.686 57.7275 164.686 57.7275C164.686 57.7275 164.686 57.7275 164.686 57.7275C164.686 57.7275 164.686 57.7275 164.686 57.7275C164.686 57.7275 164.686 57.7275 164.686 57.7275C164.686 57.7275 164.686 57.7275 164.686 57.7275C164.686 57.7275 164.686 57.7275 164.686 57.7275C164.686 57.7275 164.686 57.7275 164.686 57.7275C164.686 57.7275 164.686 57.7275 164.686 57.7275C164.686 57.7275 164.686 57.7275 164.686 57.7275C164.686 57.7275 164.686 57.7275 164.686 57.7275C164.686 57.7275 164.685 57.7275 164.685 57.7275C164.685 57.7275 164.685 57.7275 164.685 57.7275C164.685 57.7275 164.685 57.7275 164.685 57.7275C164.685 57.7275 164.685 57.7275 164.685 57.7275C164.685 57.7275 164.685 57.7275 164.685 57.7275C164.685 57.7275 164.685 57.7275 164.685 57.7275C164.685 57.7275 164.685 57.7275 164.685 57.7275C164.685 57.7275 164.685 57.7275 164.685 57.7275C164.685 57.7275 164.685 57.7275 164.685 57.7275C164.685 57.7275 164.685 57.7275 164.685 57.7275C164.685 57.7275 164.685 57.7275 164.685 57.7275C164.685 57.7275 164.685 57.7275 164.685 57.7275C164.685 57.7275 164.685 57.7275 164.685 57.7275C164.685 57.7275 164.685 57.7275 164.685 57.7275C164.685 57.7275 164.685 57.7275 164.685 57.7275C164.685 57.7275 164.685 57.7275 164.685 57.7275C164.685 57.7275 164.685 57.7275 164.685 57.7275C164.685 57.7275 164.685 57.7275 164.685 57.7275C164.685 57.7275 164.685 57.7275 164.685 57.7275C164.685 57.7275 164.685 57.7275 164.685 57.7275C164.685 57.7275 164.685 57.7275 164.685 57.7275C164.685 57.7275 164.685 57.7275 164.685 57.7275C164.685 57.7275 164.685 57.7275 164.685 57.7275C164.685 57.7275 164.685 57.7275 164.685 57.7275C164.685 57.7275 164.685 57.7275 164.685 57.7275C164.685 57.7275 164.685 57.7275 164.685 57.7275C164.685 57.7275 164.685 57.7275 164.684 57.7275C164.684 57.7275 164.684 57.7275 164.684 57.7275C164.684 57.7275 164.684 57.7275 164.684 57.7275C164.684 57.7275 164.684 57.7275 164.684 57.7275C164.684 57.7275 164.684 57.7275 164.684 57.7275C164.684 57.7275 164.684 57.7275 164.684 57.7275C164.684 57.7275 164.684 57.7275 164.684 57.7275C164.684 57.7275 164.684 57.7275 164.684 57.7275C164.684 57.7275 164.684 57.7275 164.684 57.7275C164.684 57.7275 164.684 57.7275 164.684 57.7275C164.684 57.7275 164.684 57.7275 164.684 57.7275C164.684 57.7275 164.684 57.7275 164.684 57.7275C164.684 57.7275 164.684 57.7275 164.684 57.7275C164.684 57.7275 164.684 57.7275 164.684 57.7275C164.684 57.7275 164.684 57.7275 164.684 57.7275C164.684 57.7275 164.684 57.7275 164.684 57.7275C164.684 57.7275 164.684 57.7275 164.684 57.7275C164.684 57.7275 164.684 57.7275 164.684 57.7275C164.684 57.7275 164.684 57.7275 164.684 57.7275C164.684 57.7275 164.684 57.7275 164.684 57.7275C164.684 57.7275 164.684 57.7275 164.684 57.7275C164.684 57.7275 164.684 57.7275 164.684 57.7275C164.684 57.7275 164.684 57.7275 164.684 57.7275C164.684 57.7275 164.684 57.7275 164.684 57.7275C164.684 57.7275 164.684 57.7275 164.684 57.7275C164.684 57.7275 164.684 57.7275 164.684 57.7275C164.684 57.7275 164.684 57.7275 164.684 57.7275C164.684 57.7275 164.684 57.7275 164.684 57.7275C164.683 57.7275 164.683 57.7275 164.683 57.7275C164.683 57.7275 164.683 57.7275 164.683 57.7275C164.683 57.7275 164.683 57.7275 164.683 57.7275C164.683 57.7275 164.683 57.7275 164.683 57.7275C164.683 57.7275 164.683 57.7275 164.683 57.7275C164.683 57.7275 164.683 57.7275 164.683 57.7275C164.683 57.7275 164.683 57.7275 164.683 57.7275C164.683 57.7275 164.683 57.7275 164.683 57.7275C164.683 57.7275 164.683 57.7275 164.683 57.7275C164.683 57.7275 164.683 57.7275 164.683 57.7275C164.683 57.7275 164.683 57.7275 164.683 57.7275C164.683 57.7275 164.683 57.7275 164.683 57.7275C164.683 57.7275 164.683 57.7275 164.683 57.7275C164.683 57.7275 164.683 57.7275 164.683 57.7275C164.683 57.7275 164.683 57.7275 164.683 57.7275C164.683 57.7275 164.683 57.7275 164.683 57.7275C164.683 57.7275 164.683 57.7275 164.683 57.7275C164.683 57.7275 164.683 57.7275 164.683 57.7275C164.683 57.7275 164.683 57.7275 164.683 57.7275C164.683 57.7275 164.683 57.7275 164.683 57.7275C164.683 57.7275 164.683 57.7275 164.683 57.7275C164.683 57.7275 164.683 57.7275 164.683 57.7275C164.683 57.7275 164.683 57.7275 164.683 57.7275C164.683 57.7275 164.683 57.7275 164.683 57.7275C164.683 57.7275 164.683 57.7275 164.683 57.7275C164.683 57.7275 164.683 57.7275 164.683 57.7275C164.683 57.7275 164.683 57.7275 164.683 57.7275C164.683 57.7275 164.683 57.7275 164.683 57.7275C164.682 57.7275 164.682 57.7275 164.682 57.7275C164.682 57.7275 164.682 57.7275 164.682 57.7275C164.682 57.7275 164.682 57.7275 164.682 57.7275C164.682 57.7275 164.682 57.7275 164.682 57.7275C164.682 57.7275 164.682 57.7275 164.682 57.7275C164.682 57.7275 164.682 57.7275 164.682 57.7275C164.682 57.7275 164.682 57.7275 164.682 57.7275C164.682 57.7275 164.682 57.7275 164.682 57.7275C164.682 57.7275 164.682 57.7275 164.682 57.7275C164.682 57.7275 164.682 57.7275 164.682 57.7275C164.682 57.7275 164.682 57.7275 164.682 57.7275C164.682 57.7275 164.682 57.7275 164.682 57.7275C164.682 57.7275 164.682 57.7275 164.682 57.7275C164.682 57.7275 164.682 57.7275 164.682 57.7275C164.682 57.7275 164.682 57.7275 164.682 57.7275C164.682 57.7275 164.682 57.7275 164.682 57.7275C164.682 57.7275 164.682 57.7275 164.682 57.7275C164.682 57.7275 164.682 57.7275 164.682 57.7275C164.682 57.7275 164.682 57.7275 164.682 57.7275C164.682 57.7275 164.682 57.7275 164.682 57.7275C164.682 57.7275 164.682 57.7275 164.682 57.7275C164.682 57.7275 164.682 57.7275 164.682 57.7275C164.682 57.7275 164.682 57.7275 164.682 57.7275C164.682 57.7275 164.682 57.7275 164.682 57.7275C164.682 57.7275 164.682 57.7275 164.682 57.7275C164.682 57.7275 164.682 57.7275 164.682 57.7275C164.682 57.7275 164.682 57.7275 164.682 57.7275C164.682 57.7275 164.682 57.7275 164.682 57.7275C164.682 57.7275 164.682 57.7275 164.682 57.7275C164.682 57.7275 164.682 57.7275 164.681 57.7275C164.681 57.7275 164.681 57.7275 164.681 57.7275C164.681 57.7275 164.681 57.7275 164.681 57.7275C164.681 57.7275 164.681 57.7275 164.681 57.7275C164.681 57.7275 164.681 57.7275 164.681 57.7275C164.681 57.7275 164.681 57.7275 164.681 57.7275C164.681 57.7275 164.681 57.7275 164.681 57.7275C164.681 57.7275 164.681 57.7275 164.681 57.7275C164.681 57.7275 164.681 57.7275 164.681 57.7275C164.681 57.7275 164.681 57.7275 164.681 57.7275C164.681 57.7275 164.681 57.7275 164.681 57.7275C164.681 57.7275 164.681 57.7275 164.681 57.7275C164.681 57.7275 164.681 57.7275 164.681 57.7275C164.681 57.7275 164.681 57.7275 164.681 57.7275C164.681 57.7275 164.681 57.7275 164.681 57.7275C164.681 57.7275 164.681 57.7275 164.681 57.7275C164.681 57.7275 164.681 57.7275 164.681 57.7275C164.681 57.7275 164.681 57.7275 164.681 57.7275C164.681 57.7275 164.681 57.7275 164.681 57.7275C164.681 57.7275 164.681 57.7275 164.681 57.7275C164.681 57.7275 164.681 57.7275 164.681 57.7275C164.681 57.7275 164.681 57.7275 164.681 57.7275C164.681 57.7275 164.681 57.7275 164.681 57.7275C164.681 57.7275 164.681 57.7275 164.681 57.7275C164.681 57.7275 164.681 57.7275 164.681 57.7275C164.681 57.7275 164.681 57.7275 164.681 57.7275C164.681 57.7275 164.681 57.7275 164.681 57.7275C164.681 57.7275 164.681 57.7275 164.681 57.7275C164.681 57.7275 164.681 57.7275 164.681 57.7275C164.681 57.7275 164.681 57.7275 164.681 57.7275C164.681 57.7275 164.681 57.7275 164.681 57.7275C164.681 57.7275 164.681 57.7275 164.681 57.7275C164.681 57.7275 164.681 57.7275 164.68 57.7275C164.68 57.7275 164.68 57.7275 164.68 57.7275C164.68 57.7275 164.68 57.7275 164.68 57.7275C164.68 57.7275 164.68 57.7275 164.68 57.7275C164.68 57.7275 164.68 57.7275 164.68 57.7275C164.68 57.7275 164.68 57.7275 164.68 57.7275C164.68 57.7275 164.68 57.7275 164.68 57.7275C164.68 57.7275 164.68 57.7275 164.68 57.7275C164.68 57.7275 164.68 57.7275 164.68 57.7275C164.68 57.7275 164.68 57.7275 164.68 57.7275C164.68 57.7275 164.68 57.7275 164.68 57.7275C164.68 57.7275 164.68 57.7275 164.68 57.7275C164.68 57.7275 164.68 57.7275 164.68 57.7275C164.68 57.7275 164.68 57.7275 164.68 57.7275C164.68 57.7275 164.68 57.7275 164.68 57.7275C164.68 57.7275 164.68 57.7275 164.68 57.7275C164.68 57.7275 164.68 57.7275 164.68 57.7275C164.68 57.7275 164.68 57.7275 164.68 57.7275C164.68 57.7275 164.68 57.7275 164.68 57.7275C164.68 57.7275 164.68 57.7275 164.68 57.7275C164.68 57.7275 164.68 57.7275 164.68 57.7275C164.68 57.7275 164.68 57.7275 164.68 57.7275C164.68 57.7275 164.68 57.7275 164.68 57.7275C164.68 57.7275 164.68 57.7275 164.68 57.7275C164.68 57.7275 164.68 57.7275 164.68 57.7275C164.68 57.7275 164.68 57.7275 164.68 57.7275C164.68 57.7275 164.68 57.7275 164.68 57.7275C164.68 57.7275 164.68 57.7275 164.68 57.7275C164.68 57.7275 164.68 57.7275 164.68 57.7275C164.68 57.7275 164.68 57.7275 164.68 57.7275C164.68 57.7275 164.68 57.7275 164.68 57.7275C164.68 57.7275 164.68 57.7275 164.68 57.7275C164.68 57.7275 164.68 57.7275 164.68 57.7275C164.68 57.7275 164.68 57.7275 164.68 57.7275C164.68 57.7275 164.68 57.7275 164.68 57.7275C164.68 57.7275 164.68 57.7275 164.68 57.7275C164.68 57.7275 164.68 57.7275 164.679 57.7275C164.679 57.7275 164.679 57.7275 164.679 57.7275C164.679 57.7275 164.679 57.7275 164.679 57.7275C164.679 57.7275 164.679 57.7275 164.679 57.7275C164.679 57.7275 164.679 57.7275 164.679 57.7275C164.679 57.7275 164.679 57.7275 164.679 57.7275C164.679 57.7275 164.679 57.7275 164.679 57.7275C164.679 57.7275 164.679 57.7275 164.679 57.7275C164.679 57.7275 164.679 57.7275 164.679 57.7275C164.679 57.7275 164.679 57.7275 164.679 57.7275C164.679 57.7275 164.679 57.7275 164.679 57.7275C164.679 57.7275 164.679 57.7275 164.679 57.7275C164.679 57.7275 164.679 57.7275 164.679 57.7275C164.679 57.7275 164.679 57.7275 164.679 57.7275C164.679 57.7275 164.679 57.7275 164.679 57.7275C164.679 57.7275 164.679 57.7275 164.679 57.7275C164.679 57.7275 164.679 57.7275 164.679 57.7275C164.679 57.7275 164.679 57.7275 164.679 57.7275C164.679 57.7275 164.679 57.7275 164.679 57.7275C164.679 57.7275 164.679 57.7275 164.679 57.7275C164.679 57.7275 164.679 57.7275 164.679 57.7275C164.679 57.7275 164.679 57.7275 164.679 57.7275C164.679 57.7275 164.679 57.7275 164.679 57.7275C164.679 57.7275 164.679 57.7275 164.679 57.7275C164.679 57.7275 164.679 57.7275 164.679 57.7275C164.679 57.7275 164.679 57.7275 164.679 57.7275C164.679 57.7275 164.679 57.7275 164.679 57.7275C164.679 57.7275 164.679 57.7275 164.679 57.7275C164.679 57.7275 164.679 57.7275 164.679 57.7275C164.679 57.7275 164.679 57.7275 164.679 57.7275C164.679 57.7275 164.679 57.7275 164.679 57.7275C164.679 57.7275 164.679 57.7275 164.679 57.7275C164.679 57.7275 164.679 57.7275 164.679 57.7275C164.679 57.7275 164.679 57.7275 164.679 57.7275C164.679 57.7275 164.679 57.7275 164.679 57.7275C164.679 57.7275 164.679 57.7275 164.679 57.7275C164.679 57.7275 164.679 57.7275 164.679 57.7275C164.679 57.7275 164.679 57.7275 164.679 57.7275C164.679 57.7275 164.679 57.7275 164.679 57.7275C164.679 57.7275 164.679 57.7275 164.679 57.7275C164.679 57.7275 164.679 57.7275 164.679 57.7275C164.679 57.7275 164.679 57.7275 164.679 57.7275C164.679 57.7275 164.679 57.7275 164.679 57.7275C164.679 57.7275 164.679 57.7275 164.679 57.7275C164.679 57.7275 164.679 57.7275 164.679 57.7275C164.679 57.7275 164.679 57.7275 164.678 57.7275C164.678 57.7275 164.678 57.7275 164.678 57.7275C164.678 57.7275 164.678 57.7275 164.678 57.7275C164.678 57.7275 164.678 57.7275 164.678 57.7275C164.678 57.7275 164.678 57.7275 164.678 57.7275C164.678 57.7275 164.678 57.7275 164.678 57.7275C164.678 57.7275 164.678 57.7275 164.678 57.7275C164.678 57.7275 164.678 57.7275 164.678 57.7275C164.678 57.7275 164.678 57.7275 164.678 57.7275C164.678 57.7275 164.678 57.7275 164.678 57.7275C164.678 57.7275 164.678 57.7275 164.678 57.7275C164.678 57.7275 164.678 57.7275 164.678 57.7275C164.678 57.7275 164.678 57.7275 164.678 57.7275C164.678 57.7275 164.678 57.7275 164.678 57.7275C164.678 57.7275 164.678 57.7275 164.678 57.7275C164.678 57.7275 164.678 57.7275 164.678 57.7275C164.678 57.7275 164.678 57.7275 164.678 57.7275C164.678 57.7275 164.678 57.7275 164.678 57.7275C164.678 57.7275 164.678 57.7275 164.678 57.7275C164.678 57.7275 164.678 57.7275 164.678 57.7275C164.678 57.7275 164.678 57.7275 164.678 57.7275C164.678 57.7275 164.678 57.7275 164.678 57.7275C164.678 57.7275 164.678 57.7275 164.678 57.7275C164.678 57.7275 164.678 57.7275 164.678 57.7275C164.678 57.7275 164.678 57.7275 164.678 57.7275C164.678 57.7275 164.678 57.7275 164.678 57.7275C164.678 57.7275 164.678 57.7275 164.678 57.7275C164.678 57.7275 164.678 57.7275 164.678 57.7275C164.678 57.7275 164.678 57.7275 164.678 57.7275C164.678 57.7275 164.678 57.7275 164.678 57.7275C164.678 57.7275 164.678 57.7275 164.678 57.7275C164.678 57.7275 164.678 57.7275 164.678 57.7275C164.678 57.7275 164.678 57.7275 164.678 57.7275C164.678 57.7275 164.678 57.7275 164.678 57.7275C164.678 57.7275 164.678 57.7275 164.678 57.7275C164.678 57.7275 164.678 57.7275 164.678 57.7275C164.678 57.7275 164.678 57.7275 164.678 57.7275C164.678 57.7275 164.678 57.7275 164.678 57.7275C164.678 57.7275 164.678 57.7275 164.678 57.7275C164.678 57.7275 164.678 57.7275 164.678 57.7275C164.678 57.7275 164.678 57.7275 164.678 57.7275C164.678 57.7275 164.678 57.7275 164.678 57.7275C164.678 57.7275 164.678 57.7275 164.678 57.7275C164.678 57.7275 164.678 57.7275 164.678 57.7275C164.678 57.7275 164.678 57.7275 164.678 57.7275C164.678 57.7275 164.678 57.7275 164.678 57.7275C164.678 57.7275 164.678 57.7275 164.678 57.7275C164.678 57.7275 164.678 57.7275 164.678 57.7275C164.678 57.7275 164.678 57.7275 164.678 57.7275C164.678 57.7275 164.678 57.7275 164.678 57.7275C164.678 57.7275 164.678 57.7275 164.678 57.7275C164.678 57.7275 164.678 57.7275 164.678 57.7275C164.678 57.7275 164.678 57.7275 164.678 57.7275C164.678 57.7275 164.678 57.7275 164.678 57.7275C164.678 57.7275 164.678 57.7275 164.678 57.7275C164.678 57.7275 164.678 57.7275 164.678 57.7275C164.678 57.7275 164.678 57.7275 164.678 57.7275C164.678 57.7275 164.678 57.7275 164.678 57.7275C164.678 57.7275 164.678 57.7275 164.678 57.7275C164.678 57.7275 164.678 57.7275 164.678 57.7275C164.678 57.7275 164.678 57.7275 164.678 57.7275C164.678 57.7275 164.678 57.7275 164.678 57.7275C164.678 57.7275 164.678 57.7275 164.678 57.7275C164.678 57.7275 164.678 57.7275 164.678 57.7275C164.678 57.7275 164.678 57.7275 164.678 57.7275C164.678 57.7275 164.678 57.7275 164.678 57.7275C164.678 57.7275 164.678 57.7275 164.678 57.7275C164.678 57.7275 164.678 57.7275 164.678 57.7275C164.678 57.7275 164.678 57.7275 164.678 57.7275C164.678 57.7275 164.678 57.7275 164.678 57.7275C164.678 57.7275 164.678 57.7275 164.678 57.7275C164.678 57.7275 164.678 57.7275 164.678 57.7275C164.678 57.7275 164.678 57.7275 164.678 57.7275C164.678 57.7275 164.678 57.7275 164.678 57.7275C164.678 57.7275 164.678 57.7275 164.678 57.7275C164.678 57.7275 164.678 57.7275 164.678 57.7275C164.678 57.7275 164.678 57.7275 164.678 57.7275C164.678 57.7275 164.678 57.7275 164.678 57.7275C164.678 57.7275 164.678 57.7275 164.678 57.7275C164.678 57.7275 164.678 57.7275 164.678 57.7275C164.678 57.7275 164.678 57.7275 164.678 57.7275C164.678 57.7275 164.678 57.7275 164.678 57.7275C164.678 57.7275 164.678 57.7275 164.678 57.7275C164.678 57.7275 164.678 57.7275 164.678 57.7275C164.678 57.7275 164.678 57.7275 164.678 57.7275C164.678 57.7275 164.678 57.7275 164.678 57.7275C164.678 57.7275 164.678 57.7275 164.678 57.7275C164.678 57.7275 164.678 57.7275 164.678 57.7275C164.678 57.7275 164.678 57.7275 164.678 57.7275C164.678 57.7275 164.678 57.7275 164.678 57.7275C164.678 57.7275 164.678 57.7275 164.678 57.7275C164.678 57.7275 164.677 57.7275 164.677 57.7275C164.677 57.7275 164.677 57.7275 164.677 57.7275C164.677 57.7275 164.677 57.7275 164.677 57.7275C164.677 57.7275 164.677 57.7275 164.677 57.7275C164.677 57.7275 164.677 57.7275 164.677 57.7275C164.677 57.7275 164.677 57.7275 164.677 57.7275C164.677 57.7275 164.677 57.7275 164.677 57.7275C164.677 57.7275 164.677 57.7275 164.677 57.7275C164.677 57.7275 164.677 57.7275 164.677 57.7275C164.677 57.7275 164.677 57.7275 164.677 62.7275ZM159.692 62.7275V62.7567H169.692V62.7275H159.692ZM168.226 66.2939L168.231 66.289L161.163 59.2147L161.158 59.2195L168.226 66.2939Z" fill="#554FEB" mask="url(#path-8-inside-2_2318_5734)"/>
<path d="M0.08 154.923H4.42C4.88667 154.923 5.26667 155.036 5.56 155.263C5.85333 155.489 6.07333 155.783 6.22 156.143L13.02 173.783C13.2467 174.356 13.46 174.989 13.66 175.683C13.8733 176.363 14.0733 177.083 14.26 177.843C14.5667 176.309 14.9467 174.956 15.4 173.783L22.18 156.143C22.3 155.836 22.5133 155.556 22.82 155.303C23.1267 155.049 23.5067 154.923 23.96 154.923H28.3L16.62 183.843H11.76L0.08 154.923ZM36.2984 163.323V183.843H31.3584V163.323H36.2984ZM37.0384 157.343C37.0384 157.769 36.9518 158.169 36.7784 158.543C36.6051 158.916 36.3718 159.243 36.0784 159.523C35.7984 159.803 35.4651 160.029 35.0784 160.203C34.6918 160.363 34.2784 160.443 33.8384 160.443C33.4118 160.443 33.0051 160.363 32.6184 160.203C32.2451 160.029 31.9184 159.803 31.6384 159.523C31.3584 159.243 31.1318 158.916 30.9584 158.543C30.7984 158.169 30.7184 157.769 30.7184 157.343C30.7184 156.903 30.7984 156.489 30.9584 156.103C31.1318 155.716 31.3584 155.383 31.6384 155.103C31.9184 154.823 32.2451 154.603 32.6184 154.443C33.0051 154.269 33.4118 154.183 33.8384 154.183C34.2784 154.183 34.6918 154.269 35.0784 154.443C35.4651 154.603 35.7984 154.823 36.0784 155.103C36.3718 155.383 36.6051 155.716 36.7784 156.103C36.9518 156.489 37.0384 156.903 37.0384 157.343ZM54.0778 167.323C53.9445 167.536 53.8045 167.689 53.6578 167.783C53.5111 167.863 53.3245 167.903 53.0978 167.903C52.8578 167.903 52.5978 167.836 52.3178 167.703C52.0511 167.569 51.7378 167.423 51.3778 167.263C51.0178 167.089 50.6045 166.936 50.1378 166.803C49.6845 166.669 49.1445 166.603 48.5178 166.603C47.5445 166.603 46.7778 166.809 46.2178 167.223C45.6578 167.636 45.3778 168.176 45.3778 168.843C45.3778 169.283 45.5178 169.656 45.7978 169.963C46.0911 170.256 46.4711 170.516 46.9378 170.743C47.4178 170.969 47.9578 171.176 48.5578 171.363C49.1578 171.536 49.7711 171.729 50.3978 171.943C51.0245 172.156 51.6378 172.403 52.2378 172.683C52.8378 172.949 53.3711 173.296 53.8378 173.723C54.3178 174.136 54.6978 174.636 54.9778 175.223C55.2711 175.809 55.4178 176.516 55.4178 177.343C55.4178 178.329 55.2378 179.243 54.8778 180.083C54.5178 180.909 53.9911 181.629 53.2978 182.243C52.6045 182.843 51.7445 183.316 50.7178 183.663C49.7045 183.996 48.5378 184.163 47.2178 184.163C46.5111 184.163 45.8178 184.096 45.1378 183.963C44.4711 183.843 43.8245 183.669 43.1978 183.443C42.5845 183.216 42.0111 182.949 41.4778 182.643C40.9578 182.336 40.4978 182.003 40.0978 181.643L41.2378 179.763C41.3845 179.536 41.5578 179.363 41.7578 179.243C41.9578 179.123 42.2111 179.063 42.5178 179.063C42.8245 179.063 43.1111 179.149 43.3778 179.323C43.6578 179.496 43.9778 179.683 44.3378 179.883C44.6978 180.083 45.1178 180.269 45.5978 180.443C46.0911 180.616 46.7111 180.703 47.4578 180.703C48.0445 180.703 48.5445 180.636 48.9578 180.503C49.3845 180.356 49.7311 180.169 49.9978 179.943C50.2778 179.716 50.4778 179.456 50.5978 179.163C50.7311 178.856 50.7978 178.543 50.7978 178.223C50.7978 177.743 50.6511 177.349 50.3578 177.043C50.0778 176.736 49.6978 176.469 49.2178 176.243C48.7511 176.016 48.2111 175.816 47.5978 175.643C46.9978 175.456 46.3778 175.256 45.7378 175.043C45.1111 174.829 44.4911 174.583 43.8778 174.303C43.2778 174.009 42.7378 173.643 42.2578 173.203C41.7911 172.763 41.4111 172.223 41.1178 171.583C40.8378 170.943 40.6978 170.169 40.6978 169.263C40.6978 168.423 40.8645 167.623 41.1978 166.863C41.5311 166.103 42.0178 165.443 42.6578 164.883C43.3111 164.309 44.1178 163.856 45.0778 163.523C46.0511 163.176 47.1711 163.003 48.4378 163.003C49.8511 163.003 51.1378 163.236 52.2978 163.703C53.4578 164.169 54.4245 164.783 55.1978 165.543L54.0778 167.323ZM64.6188 163.323V183.843H59.6788V163.323H64.6188ZM65.3588 157.343C65.3588 157.769 65.2721 158.169 65.0988 158.543C64.9254 158.916 64.6921 159.243 64.3988 159.523C64.1188 159.803 63.7854 160.029 63.3988 160.203C63.0121 160.363 62.5988 160.443 62.1588 160.443C61.7321 160.443 61.3254 160.363 60.9388 160.203C60.5654 160.029 60.2388 159.803 59.9588 159.523C59.6788 159.243 59.4521 158.916 59.2788 158.543C59.1188 158.169 59.0388 157.769 59.0388 157.343C59.0388 156.903 59.1188 156.489 59.2788 156.103C59.4521 155.716 59.6788 155.383 59.9588 155.103C60.2388 154.823 60.5654 154.603 60.9388 154.443C61.3254 154.269 61.7321 154.183 62.1588 154.183C62.5988 154.183 63.0121 154.269 63.3988 154.443C63.7854 154.603 64.1188 154.823 64.3988 155.103C64.6921 155.383 64.9254 155.716 65.0988 156.103C65.2721 156.489 65.3588 156.903 65.3588 157.343ZM78.9781 163.003C80.5115 163.003 81.8981 163.249 83.1381 163.743C84.3915 164.236 85.4581 164.936 86.3381 165.843C87.2181 166.749 87.8981 167.856 88.3781 169.163C88.8581 170.469 89.0981 171.929 89.0981 173.543C89.0981 175.169 88.8581 176.636 88.3781 177.943C87.8981 179.249 87.2181 180.363 86.3381 181.283C85.4581 182.203 84.3915 182.909 83.1381 183.403C81.8981 183.896 80.5115 184.143 78.9781 184.143C77.4448 184.143 76.0515 183.896 74.7981 183.403C73.5448 182.909 72.4715 182.203 71.5781 181.283C70.6981 180.363 70.0115 179.249 69.5181 177.943C69.0381 176.636 68.7981 175.169 68.7981 173.543C68.7981 171.929 69.0381 170.469 69.5181 169.163C70.0115 167.856 70.6981 166.749 71.5781 165.843C72.4715 164.936 73.5448 164.236 74.7981 163.743C76.0515 163.249 77.4448 163.003 78.9781 163.003ZM78.9781 180.343C80.6848 180.343 81.9448 179.769 82.7581 178.623C83.5848 177.476 83.9981 175.796 83.9981 173.583C83.9981 171.369 83.5848 169.683 82.7581 168.523C81.9448 167.363 80.6848 166.783 78.9781 166.783C77.2448 166.783 75.9648 167.369 75.1381 168.543C74.3115 169.703 73.8981 171.383 73.8981 173.583C73.8981 175.783 74.3115 177.463 75.1381 178.623C75.9648 179.769 77.2448 180.343 78.9781 180.343ZM92.9525 183.843V163.323H95.9725C96.6125 163.323 97.0325 163.623 97.2325 164.223L97.5725 165.843C97.9858 165.416 98.4192 165.029 98.8725 164.683C99.3392 164.336 99.8258 164.036 100.333 163.783C100.853 163.529 101.406 163.336 101.993 163.203C102.579 163.069 103.219 163.003 103.913 163.003C105.033 163.003 106.026 163.196 106.893 163.583C107.759 163.956 108.479 164.489 109.053 165.183C109.639 165.863 110.079 166.683 110.373 167.643C110.679 168.589 110.833 169.636 110.833 170.783V183.843H105.893V170.783C105.893 169.529 105.599 168.563 105.013 167.883C104.439 167.189 103.573 166.843 102.413 166.843C101.559 166.843 100.759 167.036 100.013 167.423C99.2658 167.809 98.5592 168.336 97.8925 169.003V183.843H92.9525ZM141.941 154.923V159.203H129.121V167.763H139.941V172.063H129.121V183.843H123.701V154.923H141.941ZM151.142 154.123V183.843H146.202V154.123H151.142ZM165.502 163.003C167.035 163.003 168.422 163.249 169.662 163.743C170.915 164.236 171.982 164.936 172.862 165.843C173.742 166.749 174.422 167.856 174.902 169.163C175.382 170.469 175.622 171.929 175.622 173.543C175.622 175.169 175.382 176.636 174.902 177.943C174.422 179.249 173.742 180.363 172.862 181.283C171.982 182.203 170.915 182.909 169.662 183.403C168.422 183.896 167.035 184.143 165.502 184.143C163.968 184.143 162.575 183.896 161.322 183.403C160.068 182.909 158.995 182.203 158.102 181.283C157.222 180.363 156.535 179.249 156.042 177.943C155.562 176.636 155.322 175.169 155.322 173.543C155.322 171.929 155.562 170.469 156.042 169.163C156.535 167.856 157.222 166.749 158.102 165.843C158.995 164.936 160.068 164.236 161.322 163.743C162.575 163.249 163.968 163.003 165.502 163.003ZM165.502 180.343C167.208 180.343 168.468 179.769 169.282 178.623C170.108 177.476 170.522 175.796 170.522 173.583C170.522 171.369 170.108 169.683 169.282 168.523C168.468 167.363 167.208 166.783 165.502 166.783C163.768 166.783 162.488 167.369 161.662 168.543C160.835 169.703 160.422 171.383 160.422 173.583C160.422 175.783 160.835 177.463 161.662 178.623C162.488 179.769 163.768 180.343 165.502 180.343ZM176.976 163.323H180.896C181.269 163.323 181.583 163.409 181.836 163.583C182.089 163.756 182.249 163.976 182.316 164.243L185.256 175.203C185.416 175.803 185.543 176.389 185.636 176.963C185.743 177.536 185.843 178.109 185.936 178.683C186.083 178.109 186.236 177.536 186.396 176.963C186.569 176.389 186.749 175.803 186.936 175.203L190.336 164.203C190.416 163.936 190.576 163.716 190.816 163.543C191.056 163.369 191.336 163.283 191.656 163.283H193.836C194.196 163.283 194.496 163.369 194.736 163.543C194.976 163.716 195.136 163.936 195.216 164.203L198.576 175.403C198.749 175.976 198.903 176.536 199.036 177.083C199.183 177.616 199.323 178.156 199.456 178.703C199.549 178.129 199.649 177.556 199.756 176.983C199.876 176.409 200.023 175.816 200.196 175.203L203.236 164.243C203.303 163.976 203.463 163.756 203.716 163.583C203.969 163.409 204.263 163.323 204.596 163.323H208.336L201.836 183.843H197.856C197.429 183.843 197.123 183.549 196.936 182.963L193.236 171.103C193.116 170.716 193.003 170.329 192.896 169.943C192.803 169.543 192.723 169.149 192.656 168.763C192.576 169.163 192.489 169.563 192.396 169.963C192.303 170.349 192.196 170.743 192.076 171.143L188.336 182.963C188.149 183.549 187.789 183.843 187.256 183.843H183.476L176.976 163.323Z" fill="#2E2E30"/>
</svg>
