<svg width="44" height="39" viewBox="0 0 44 39" fill="none" xmlns="http://www.w3.org/2000/svg">
<path d="M1.29836 28.0142C0.944949 28.0142 0.640078 27.8959 0.383743 27.6578C0.127409 27.4198 0 27.1559 0 26.8632C0 26.5462 0.127409 26.2748 0.383743 26.0503C0.640078 25.8244 0.944949 25.7122 1.29836 25.7122C1.65177 25.7122 1.9536 25.8244 2.20387 26.0503C2.45414 26.2763 2.57851 26.5478 2.57851 26.8632C2.57851 27.1559 2.45262 27.4213 2.20387 27.6578C1.9536 27.8959 1.65177 28.0142 1.29836 28.0142ZM1.29836 38.6344C0.957084 38.6344 0.676481 38.5555 0.458065 38.3963C0.238133 38.2386 0.128926 38.0611 0.128926 37.8655V30.6818C0.128926 30.4619 0.238133 30.286 0.458065 30.151C0.677997 30.0175 0.957084 29.9493 1.29836 29.9493C1.63963 29.9493 1.9081 30.016 2.13865 30.151C2.37072 30.286 2.48599 30.4619 2.48599 30.6818V37.8655C2.48599 38.0611 2.37072 38.237 2.13865 38.3963C1.90658 38.5555 1.62598 38.6344 1.29836 38.6344Z" fill="white"/>
<path d="M7.64168 38.6347C6.54505 38.6347 5.70628 38.3966 5.12839 37.922C4.54898 37.4473 4.25928 36.6905 4.25928 35.6548V26.8074C4.25928 26.5875 4.38669 26.4116 4.64302 26.2766C4.89936 26.1432 5.16024 26.075 5.42871 26.075C5.72145 26.075 5.99295 26.1417 6.2417 26.2766C6.49197 26.4116 6.61634 26.5875 6.61634 26.8074V29.9512H8.77319C8.96734 29.9512 9.1175 30.0391 9.22064 30.2165C9.32378 30.394 9.37535 30.5911 9.37535 30.811C9.37535 31.0309 9.32378 31.2281 9.22064 31.4055C9.1175 31.5829 8.96734 31.6709 8.77319 31.6709H6.61634V35.6563C6.61634 36.0218 6.69218 36.2781 6.84538 36.4236C6.99705 36.5692 7.26249 36.6435 7.64016 36.6435H8.35305C8.69432 36.6435 8.94762 36.7467 9.11143 36.9544C9.27525 37.1622 9.35867 37.3866 9.35867 37.6308C9.35867 37.8871 9.27676 38.1176 9.11143 38.3253C8.94611 38.5331 8.69432 38.6362 8.35305 38.6362H7.64016L7.64168 38.6347Z" fill="white"/>
<path d="M14.1516 38.7978C13.2249 38.7978 12.4695 38.6341 11.884 38.305C11.2986 37.9759 10.8663 37.5285 10.5857 36.9613C10.3051 36.3942 10.1655 35.7587 10.1655 35.0505V33.5886C10.1655 32.8819 10.302 32.245 10.5766 31.6778C10.8511 31.1106 11.2834 30.6633 11.8749 30.3342C12.4665 30.0051 13.2127 29.8413 14.1152 29.8413C14.6885 29.8413 15.1936 29.908 15.6335 30.043C16.0718 30.178 16.4192 30.3539 16.6755 30.5738C16.9319 30.7937 17.0593 31.0242 17.0593 31.2683C17.0593 31.4139 17.0198 31.5762 16.941 31.7521C16.8621 31.9295 16.7514 32.0842 16.6118 32.2177C16.4723 32.3527 16.31 32.4194 16.128 32.4194C15.993 32.4194 15.8565 32.3769 15.7169 32.292C15.5759 32.2071 15.3969 32.1221 15.1769 32.0357C14.957 31.9508 14.6643 31.9083 14.2987 31.9083C13.6769 31.9083 13.2264 32.0585 12.9458 32.3557C12.6652 32.6544 12.5256 33.0654 12.5256 33.5901V35.052C12.5256 35.5768 12.6652 35.9877 12.9458 36.2865C13.2264 36.5852 13.6829 36.7339 14.3169 36.7339C14.6946 36.7339 14.9873 36.6853 15.1951 36.5883C15.4029 36.4912 15.5759 36.4002 15.7169 36.3138C15.8565 36.2289 16.0006 36.1864 16.1462 36.1864C16.3661 36.1864 16.5511 36.2471 16.7043 36.3699C16.856 36.4912 16.9728 36.6414 17.0517 36.8173C17.1305 36.9947 17.17 37.1555 17.17 37.301C17.17 37.5452 17.0395 37.7833 16.7771 38.0138C16.5147 38.2458 16.1553 38.4339 15.6987 38.581C15.2422 38.7281 14.7265 38.8009 14.1546 38.8009L14.1516 38.7978Z" fill="white"/>
<path d="M42.4453 22.3545L42.4395 22.3472C42.4395 22.3472 42.4424 22.3457 42.4438 22.3457V22.3545H42.4453Z" fill="white"/>
<path d="M42.4835 20.0013L40.8863 11.1767C41.3459 10.8158 41.6417 10.2547 41.6417 9.62531C41.6417 8.53645 40.7589 7.65384 39.6698 7.65384C39.2436 7.65384 38.8493 7.78881 38.5262 8.01932L28.3244 2.10947C28.0226 0.897776 26.9259 0 25.62 0C24.5385 0 23.6012 0.617221 23.1401 1.51803L13.1127 1.84408C12.782 1.21928 12.1253 0.794653 11.3699 0.794653C10.2809 0.794653 9.3981 1.67726 9.3981 2.76612C9.3981 2.94507 9.42236 3.11795 9.46787 3.28325L3.17781 8.98382C2.9685 8.908 2.74401 8.86705 2.50891 8.86705C1.41987 8.86705 0.537109 9.74966 0.537109 10.8385C0.537109 11.9274 1.341 12.7281 2.36027 12.8039L5.62892 20.5139C5.47724 20.7944 5.39078 21.1144 5.39078 21.4541C5.39078 22.543 6.27354 23.4256 7.36259 23.4256C7.9511 23.4256 8.48045 23.1678 8.83992 22.7583L16.3267 24.425C16.4238 25.2287 17.0047 25.8823 17.7692 26.0871L21.3093 32.9432C21.0302 33.2829 20.8619 33.7182 20.8619 34.1928C20.8619 35.2817 21.7446 36.1643 22.8337 36.1643C23.5223 36.1643 24.1275 35.8109 24.4794 35.2771H24.4809L33.9046 33.5711C34.2519 34.1276 34.8708 34.4961 35.5746 34.4961C36.6636 34.4961 37.5464 33.6135 37.5464 32.5247C37.5464 32.1592 37.4463 31.8164 37.2718 31.5222L41.6781 23.5469C42.6048 23.3862 43.3086 22.5794 43.3086 21.6058C43.3086 20.9446 42.9825 20.3577 42.4819 20.0013H42.4835ZM28.2167 3.79887L37.7238 9.30684C37.7071 9.40996 37.698 9.51612 37.698 9.62531C37.698 9.70568 37.7026 9.78606 37.7132 9.8634L34.7039 11.9911L28.1879 3.87166C28.1985 3.84739 28.2091 3.82313 28.2167 3.79887ZM39.4044 21.9955L29.6789 28.653L20.2521 24.2642C20.2552 24.2369 20.2552 24.2111 20.2552 24.1838C20.2552 24.1459 20.2552 24.1065 20.2506 24.0686L34.4142 14.055L39.6532 20.5836C39.4711 20.8809 39.3665 21.2312 39.3665 21.6058C39.3665 21.7392 39.3801 21.8696 39.4044 21.9955ZM10.4022 4.48281C10.6874 4.64508 11.018 4.73759 11.3699 4.73759C12.2527 4.73759 13.0004 4.15676 13.2507 3.35756L22.0374 3.07246L4.32904 10.0787C4.31994 10.056 4.30932 10.0348 4.30022 10.012L10.4022 4.48281ZM8.21046 19.6737C7.95261 19.5509 7.66594 19.4826 7.36259 19.4826C7.19119 19.4826 7.02435 19.5039 6.86509 19.5463L3.80424 12.3232C3.99383 12.1594 4.15006 11.9592 4.26534 11.7348L23.2356 4.22956C23.2523 4.25685 23.269 4.28415 23.2872 4.30993L8.21046 19.6737ZM17.7328 22.2912H17.7312C17.3323 22.4065 16.9865 22.6446 16.7362 22.963L9.32832 21.3146C9.31771 21.1372 9.2813 20.9658 9.22367 20.805L24.4339 5.3078C24.4915 5.33509 24.5507 5.36087 24.6113 5.38362L17.7328 22.2912ZM26.1948 5.51404C26.5649 5.43518 26.9092 5.28505 27.2096 5.07577L33.4632 12.8691L19.5711 22.6916C19.4831 22.6158 19.3891 22.5475 19.289 22.4884L26.1948 5.51404ZM23.9561 32.5717C23.6376 32.3503 23.2508 32.2214 22.8337 32.2214C22.7715 32.2214 22.7093 32.2244 22.6486 32.2305L19.3496 25.8414C19.4437 25.7822 19.5317 25.714 19.6136 25.6397L28.2243 29.6493L23.9561 32.5717ZM25.1028 33.6226L29.8214 30.3924L33.4981 32.1046L25.1028 33.6226ZM36.0432 30.6093C35.8931 30.5729 35.7353 30.5532 35.5746 30.5532C35.1681 30.5532 34.7904 30.676 34.4764 30.8868L31.276 29.3976L40.0217 23.4104L36.0432 30.6093ZM40.8802 19.6889L35.655 13.177L38.4686 11.1888C38.7385 11.3966 39.0631 11.5361 39.4181 11.5801L40.8848 19.6874V19.6965L40.8802 19.6889Z" fill="white"/>
<path d="M41.1894 19.0898L41.1836 19.0825C41.1836 19.0825 41.1865 19.0825 41.188 19.0825V19.0913L41.1894 19.0898Z" fill="white"/>
</svg>
