<svg width="24" height="24" viewBox="0 0 24 24" fill="none" xmlns="http://www.w3.org/2000/svg">
<path d="M4.20852 15.9946C3.65852 15.9946 3.20852 15.5446 3.20852 14.9946C3.20852 14.4446 3.65852 13.9946 4.20852 13.9946H7.20852C9.78852 13.2646 10.6785 10.9246 10.2085 8.82461L9.32852 9.70461C8.93852 10.0946 8.30852 10.0946 7.91852 9.70461C7.52851 9.31461 7.52851 8.68461 7.91852 8.29461L10.5085 5.70461C10.8985 5.31461 11.5285 5.31461 11.9185 5.70461L14.5085 8.29461C14.8985 8.68461 14.8985 9.31461 14.5085 9.70461C14.1185 10.0946 13.4885 10.0946 13.0985 9.70461L12.2085 8.82461C12.5385 10.3346 12.1285 12.5546 10.8485 13.9946H17.3785L16.4985 13.1146C16.1085 12.7246 16.1085 12.0946 16.4985 11.7046C16.8885 11.3146 17.5185 11.3146 17.9085 11.7046L20.4985 14.2946C20.8885 14.6846 20.8885 15.3146 20.4985 15.7046L17.9085 18.2946C17.5185 18.6846 16.8885 18.6846 16.4985 18.2946C16.1085 17.9046 16.1085 17.2746 16.4985 16.8846L17.3785 15.9946H4.20852Z" fill="black"/>
</svg>
