<svg width="20" height="20" viewBox="0 0 20 20" fill="none" xmlns="http://www.w3.org/2000/svg">
<path d="M18.6472 7.70629H12.6476C12.4525 7.70629 12.2947 7.54846 12.2947 7.3534L12.2939 1.35301C12.2939 1.15796 12.4518 1.00012 12.6468 1.00012C12.8419 1.00012 12.9997 1.15795 12.9997 1.35301V6.99987H18.6466C18.8416 6.99987 18.9995 7.15769 18.9995 7.35275C19.0002 7.5478 18.8423 7.70629 18.6472 7.70629Z" fill="#757575" stroke="#757575" stroke-width="0.7"/>
<path d="M7.35252 7.70616H1.35289C1.15784 7.70616 1 7.54833 1 7.35327C1 7.15823 1.15783 7.00038 1.35289 7.00038H6.99974V1.35277C6.99974 1.15772 7.15757 0.999878 7.35263 0.999878C7.54769 0.999878 7.70552 1.15771 7.70552 1.35277V7.3524C7.70626 7.54744 7.54757 7.70616 7.35252 7.70616Z" fill="#757575" stroke="#757575" stroke-width="0.7"/>
<path d="M12.6476 19C12.4525 19 12.2947 18.8421 12.2947 18.6471L12.2939 12.6474C12.2939 12.4524 12.4518 12.2946 12.6468 12.2946H18.6465C18.8415 12.2946 18.9994 12.4524 18.9994 12.6474C18.9994 12.8425 18.8415 13.0003 18.6465 13.0003H13.0004V18.6472C13.0004 18.8422 12.8419 19 12.6476 19Z" fill="#757575" stroke="#757575" stroke-width="0.7"/>
<path d="M7.35263 19.0001C7.15759 19.0001 6.99974 18.8422 6.99974 18.6472V13.0003H1.35289C1.15784 13.0003 1 12.8425 1 12.6474C1 12.4524 1.15783 12.2946 1.35289 12.2946H7.35252C7.54756 12.2946 7.7054 12.4524 7.7054 12.6474V18.6471C7.70615 18.8421 7.54769 19.0001 7.35263 19.0001Z" fill="#757575" stroke="#757575" stroke-width="0.7"/>
<path d="M6.64691 10.353H4.88251C4.68747 10.353 4.52962 10.1952 4.52962 10.0001C4.52962 9.80504 4.68745 9.64722 4.88251 9.64722H6.64691C6.84196 9.64722 6.9998 9.80504 6.9998 10.0001C6.9998 10.1952 6.84197 10.353 6.64691 10.353ZM3.11803 10.353H1.35289C1.15784 10.353 1 10.1952 1 10.0001C1 9.80504 1.15783 9.64722 1.35289 9.64722H3.11729C3.31233 9.64722 3.47018 9.80504 3.47018 10.0001C3.47092 10.1952 3.31235 10.353 3.11803 10.353Z" fill="#757575" stroke="#757575" stroke-width="0.7"/>
<path d="M18.6469 10.353H16.8825C16.6875 10.353 16.5296 10.1952 16.5296 10.0001C16.5296 9.80504 16.6875 9.64722 16.8825 9.64722H18.6469C18.842 9.64722 18.9998 9.80504 18.9998 10.0001C18.9998 10.1952 18.842 10.353 18.6469 10.353ZM15.1173 10.353H13.3529C13.1578 10.353 13 10.1952 13 10.0001C13 9.80504 13.1578 9.64722 13.3529 9.64722H15.1173C15.3123 9.64722 15.4702 9.80504 15.4702 10.0001C15.4702 10.1952 15.3123 10.353 15.1173 10.353Z" fill="#757575" stroke="#757575" stroke-width="0.7"/>
<path d="M9.99986 19.0001C9.80482 19.0001 9.64697 18.8422 9.64697 18.6472V16.8828C9.64697 16.6877 9.8048 16.5299 9.99986 16.5299C10.1949 16.5299 10.3527 16.6877 10.3527 16.8828V18.6472C10.3527 18.8422 10.1949 19.0001 9.99986 19.0001ZM9.99986 15.4704C9.80482 15.4704 9.64697 15.3126 9.64697 15.1175V13.3531C9.64697 13.1581 9.8048 13.0002 9.99986 13.0002C10.1949 13.0002 10.3527 13.1581 10.3527 13.3531V15.1175C10.3527 15.3126 10.1949 15.4704 9.99986 15.4704Z" fill="#757575" stroke="#757575" stroke-width="0.7"/>
<path d="M9.99986 6.99968C9.80482 6.99968 9.64697 6.84185 9.64697 6.64679V4.88239C9.64697 4.68734 9.8048 4.5295 9.99986 4.5295C10.1949 4.5295 10.3527 4.68733 10.3527 4.88239V6.64679C10.3527 6.84184 10.1949 6.99968 9.99986 6.99968ZM9.99986 3.4708C9.80482 3.4708 9.64697 3.31297 9.64697 3.11791V1.35277C9.64697 1.15772 9.8048 0.999878 9.99986 0.999878C10.1949 0.999878 10.3527 1.15771 10.3527 1.35277V3.11717C10.3527 3.31221 10.1949 3.4708 9.99986 3.4708Z" fill="#757575" stroke="#757575" stroke-width="0.7"/>
<path d="M10.0005 11.9407C8.92994 11.9407 8.05957 11.0696 8.05957 9.99976C8.05957 8.9292 8.9306 8.05884 10.0005 8.05884C11.071 8.05884 11.9414 8.92987 11.9414 9.99976C11.9414 11.0703 11.0711 11.9407 10.0005 11.9407Z" fill="white" stroke="#757575" stroke-width="0.7"/>
</svg>
