<svg width="24" height="24" viewBox="0 0 24 24" fill="none" xmlns="http://www.w3.org/2000/svg">
<path d="M15.9946 19.7915C15.9946 20.3415 15.5446 20.7915 14.9946 20.7915C14.4446 20.7915 13.9946 20.3415 13.9946 19.7915V16.7915C13.2646 14.2115 10.9246 13.3215 8.82461 13.7915L9.70461 14.6715C10.0946 15.0615 10.0946 15.6915 9.70461 16.0815C9.31461 16.4715 8.68461 16.4715 8.29461 16.0815L5.70461 13.4915C5.31461 13.1015 5.31461 12.4715 5.70461 12.0815L8.29461 9.49148C8.68461 9.10148 9.31461 9.10148 9.70461 9.49148C10.0946 9.88148 10.0946 10.5115 9.70461 10.9015L8.82461 11.7915C10.3346 11.4615 12.5546 11.8715 13.9946 13.1515V6.62148L13.1146 7.50148C12.7246 7.89148 12.0946 7.89148 11.7046 7.50148C11.3146 7.11148 11.3146 6.48148 11.7046 6.09148L14.2946 3.50148C14.6846 3.11148 15.3146 3.11148 15.7046 3.50148L18.2946 6.09148C18.6846 6.48148 18.6846 7.11148 18.2946 7.50148C17.9046 7.89148 17.2746 7.89148 16.8846 7.50148L15.9946 6.62148V19.7915Z" fill="black"/>
</svg>
